<svg version="1.1" xmlns="http://www.w3.org/2000/svg" xmlns:xlink="http://www.w3.org/1999/xlink" width="79.43537" height="122.55328" viewBox="0,0,79.43537,122.55328"><g transform="translate(-200.49963,-118.44672)"><g data-paper-data="{&quot;isPaintingLayer&quot;:true}" fill-rule="evenodd" stroke="none" stroke-width="1" stroke-linecap="butt" stroke-linejoin="miter" stroke-miterlimit="10" stroke-dasharray="" stroke-dashoffset="0" style="mix-blend-mode: normal"><g><g fill="#f0b484"><path d="M226.6,206.6c0,0.8 -4.6,10 -5,10.6l-6.8,0.2c0.1,-0.9 2.7,-11.2 3,-12c1.6,0 7.2,1.2 8.8,1.2z"/></g><g><path d="M215.3,237.3c-0.3,0.7 -0.4,1.1 -0.4,1.1c-1.5,0.1 -10.3,0.2 -10.3,0.2l-0.4,-0.8c0.9,-0.4 6.5,-2.2 6.5,-2.2z" fill="#000000"/><path d="M223,216.4c-2.1,5.5 -6.4,17.3 -7.7,20.9l-4.6,-1.8l3.5,-19.1z" fill="#00a08c"/></g><path d="M213.7,214.6h10.7l-1,2.8l-10.4,-0.1z" fill="#008264"/></g><g><g fill="#f0b484"><path d="M262.4,217.4h-6.5c-0.4,-0.7 -3,-10.4 -3,-11.2c1.4,-0.2 7.2,-1.2 8.6,-1c0.1,1.3 0.8,11 0.9,12.2z"/></g><g><path d="M273,240l-0.1,1c-0.2,0 -7.4,-0.1 -9.4,0c0,0 -0.1,-0.3 -0.3,-0.8l3.6,-1.8c1.1,0.3 6.3,1.6 6.2,1.6z" fill="#000000"/><path d="M266.7,238.4l-3.6,1.8c-1.4,-3.4 -7.1,-17.5 -9.2,-24.6c3.4,-0.4 6.8,-0.4 10.2,-0.1c0.1,0.5 2.6,22.9 2.6,22.9c0.1,0 0.1,0 0,0z" fill="#00a08c"/></g><path d="M253.1,214.6h11.5l0.4,2.8h-11.3z" fill="#008264"/></g><g><path d="M251.1,134.6c0.9,-1.5 1.9,-3.6 4.1,-3c1.7,0.4 2.4,2.6 2.1,4.2c-0.3,1.6 -2.1,3.1 -3.8,3.1c-2.9,-0.1 -2.7,-2.2 -2.4,-4.3z" fill="#dcaa78"/><path d="M252.7,139.2c-0.2,2 -5.3,10.8 -13,10.8c-7.7,0 -12.5,-8.5 -13.2,-11.1c-1.2,-4.1 -1.9,-9.7 -0.1,-13.6c1,-2.2 1.2,-1.9 3.3,-1.6l8.6,1.4l14.2,2.3c0.7,3.9 0.7,7.9 0.2,11.8z" fill="#f0b484"/><path d="M224.5,124.6c0,0 -4,1.3 -5.6,3.6c-2,2.9 -2.4,6.2 -3.2,9.5c-0.8,3 -2.3,5.8 -5.3,7.1c-3,1.3 -6.7,0.4 -8.2,-2.7c-2.8,-5.3 -0.3,-14.8 4.8,-18.1c2.8,-1.8 6.2,-1.9 9.4,-1.5c2.8,0.3 5.5,1 8.1,2.1z" fill="#000000"/><path d="M226.3,124.9c3,-5.6 10.4,-7.4 16.8,-6c8,1.7 10.7,7.3 10.1,14.1c-4.3,0.2 -26.6,-7.4 -26.9,-8.1z" fill="#000000"/><path d="M227.6,132.3c0,0 2.1,4.4 2.2,6.3c-1.1,0 -4.1,0.8 -5.4,0.4c-1.1,-0.3 -2.3,-1.1 -2.6,-2.3c-0.2,-1.1 -0.8,-3.3 -0.4,-4.2c1.7,-3.7 6.2,-0.2 6.2,-0.2z" fill="#dcaa78"/><path d="M225.4,128.8c-1.3,-0.9 -1.7,-2.5 -1.1,-3.9c1,-2.5 3.5,-1.5 3.5,-1.5z" fill="#f01446"/><path d="M239.5,132c0.4,0.7 0.7,1.4 0.9,2.1c0.1,0.6 0.4,1.3 -0.2,1.9c-0.3,0.4 -0.9,0.5 -1.4,0.3c-0.4,-0.2 -0.5,-0.5 -0.6,-1c0,-0.9 0.2,-1.9 0.7,-2.7c0.2,-0.2 0.4,-0.4 0.6,-0.6z" fill="#be8c64"/><path d="M243.3,140.1c-0.6,2.5 -5.6,3.6 -7.2,1.6c-0.7,-0.9 -1.2,-2.9 0.4,-3c0.6,0 1.6,0.3 2.3,0.4c0.8,0.1 1.7,0.3 2.6,0.4c0.7,0.1 1.3,0.3 1.9,0.6z" fill="#000000"/><path d="M232.7,132.5c0.4,-0.1 0.7,0 0.8,0.2c0.1,0.4 0.1,1.7 -0.3,2l-0.5,-0.2z" fill="#000000"/><path d="M246.3,134.6c-0.5,-0.1 -0.8,-1 -0.5,-1.5c0.1,-0.2 0.2,-0.3 0.4,-0.3c0.1,0 0.3,0.2 0.3,0.4c0.1,0.4 0.1,1 -0.2,1.4z" fill="#000000"/><path d="M235.7,124.4l-10.4,12.6c0,0 -5.2,-16.2 10.6,-18.3z" fill="#000000"/><path d="M230.5,123.3l4.2,1.5l-6.2,13.9l2,-15.4" fill="#000000"/></g><path d="M220.4,191.3l-3.8,12.9c-0.8,-1 -1.2,-3.2 -1.2,-3.2l1.6,-9z" fill="#dcaa78"/><path d="M265.2,189.9v2.1c-3.5,2.8 -4,13 -4,13l-3.9,-14.8z" fill="#dcaa78"/><path d="M213.3,209c1.4,-4.4 2.9,-8.8 4.3,-13.2c0.7,-2 1.4,-4.1 2,-6.1c0.3,-0.7 0.6,-3.3 1.2,-3.8c1.3,-1.2 7.4,-0.1 9.3,-0.1l28.7,0.6c1,2.3 3.4,14.4 5.2,22.7h-14.3l-4.3,-12.1v0.2l-12.8,0.1l-3.6,11.8z" fill="#f01446"/><path d="M275.6,188.1c-2,2.3 -4.6,4 -7.5,4.9c-1.5,0.4 -3.1,0.3 -4.2,1.5c-0.6,0.6 -1.4,2.1 -1.6,2.2c-1.1,-2.2 -0.9,-2.7 -2.2,-4.7c-1.3,-2 -4.5,-0.6 -5.4,-2.6c1.4,-1.1 4.3,-0.4 6,-0.9c1.7,-0.6 6,-2.3 7.5,-4.4c1.5,-2 4.7,-5.6 2.7,-12.2c-2,-6.6 -5.8,-9.1 -12,-9.1l0.6,-8.2c1.4,0 7.5,1.5 9.1,2.4c5.7,3.2 10.3,8.3 11.2,15.3c0.6,5.4 -0.8,11.8 -4.2,15.8z" fill="#f0b484"/><path d="M220.3,191.9c-1.4,0.3 -1.8,0.6 -2.4,2c-1.1,2.6 -1.4,4.3 -2.4,7.1c-0.9,-2 0.7,-4 -0.7,-5.8c-1.1,-1.5 -4.1,-2.2 -5.5,-3.3c-4.7,-3.7 -7.3,-9.5 -8.5,-15.7c-2.3,-12.6 9.3,-18.3 11.3,-19.3c2.4,-1.2 4.9,-1.3 7.4,-1.7l0.2,7.6c-0.3,0.2 -4.2,-0.7 -8.2,4.8c-4,5.5 -3.7,11.4 -1.1,16c1.2,2.2 3,4.6 5,5.8c1,0.6 2.1,1 3.3,1.2c0.9,0 3.1,-0.9 3.9,-0.1c1.4,1.5 -1.7,1.2 -2.3,1.4z" fill="#f0b484"/><g><path d="M254,164.1c1.9,7.4 4.7,18.9 5.8,23.5l-19.5,0.8l-3.8,-6.3l-3.8,-10.3l7.7,-18.1h20.1c0,0.3 0.1,2.3 0.1,2.7c0.1,2.6 0.3,5.2 0.6,7.8z" fill="#008264"/><path d="M258,152.8h4.7v12.2h-4.7z" fill="#f01446"/><path d="M240.3,153.7v34.7l-21.4,0.8c1.9,-7.2 4.9,-18.2 6.8,-25.3c-3.7,-0.1 -6.3,-0.2 -6.8,-0.2c-0.4,-0.6 -0.3,-1.7 -0.3,-2.4c0,-0.9 0,-1.9 -0.1,-2.8c-0.1,-1.1 0,-3.7 0.1,-4.8z" fill="#00a08c"/><path d="M217.4,152.8h4.7v12.2h-4.7z" fill="#f01446"/><path d="M249.7,159.7c1.1,1 1.8,2.4 1.8,2.8c0.1,1 -0.1,2.1 -0.6,3c-0.7,0.9 -1.7,1.6 -2.8,1.7c-1.1,0.2 -2.3,-0.2 -3.2,-0.9c-4.4,-3.4 0.7,-9.6 4.8,-6.6z" fill="#00a08c"/></g></g></g></svg>