<svg version="1.1" xmlns="http://www.w3.org/2000/svg" xmlns:xlink="http://www.w3.org/1999/xlink" width="102.40344" height="124.75328" viewBox="0,0,102.40344,124.75328"><g transform="translate(-189.47112,-117.44672)"><g data-paper-data="{&quot;isPaintingLayer&quot;:true}" fill-rule="evenodd" stroke="none" stroke-width="1" stroke-linecap="butt" stroke-linejoin="miter" stroke-miterlimit="10" stroke-dasharray="" stroke-dashoffset="0" style="mix-blend-mode: normal"><g><g><path d="M234.7,206.4c-1.7,3.1 -5.8,11.5 -6.5,12.6l-11,-0.3c0.1,-0.8 1.5,-7.5 2.4,-12.3z" fill="#f0b484"/><path d="M216.1,211.5c1.4,-3.5 2.6,-7.2 3.5,-10.9c0.5,-2.2 0.6,-5 1.6,-7l21,-0.5c-0.2,2.4 -8.8,18.7 -8.8,18.7z" fill="#be0a3c"/></g><g><path d="M221.9,240.2l0.6,1.2c-1.2,0.3 -10.6,0.7 -11.7,0.8l-0.6,-1.1v0l6,-1.6c2.6,0.4 3.4,0.4 5.7,0.7z" fill="#000000"/><path d="M216.1,239.6l-6,1.6c1.7,-7.9 4.6,-15.8 6.7,-23.6c4.3,-0.2 8.6,-0.2 12.8,-0.2v0.1c-0.1,0.4 -0.3,0.8 -0.6,1.1c-1.8,3.9 -4.3,7.6 -6.6,11.3c-1.5,2.4 -3,4.8 -4.5,7.2c-0.7,1.1 -0.7,0.9 -1.8,2.5z" fill="#00a08c"/></g><path d="M230.6,216.5l-1.3,3.3l-13.6,0.1l0.7,-3.3z" fill="#008264"/></g><g><g><path d="M257.8,201.6c-2.2,0.7 -8.6,1.7 -10.9,1l-0.2,-11.8c0,0 10,0.4 11.3,0.8c0,1.6 0.1,8.1 -0.2,10z" fill="#f0b484"/><path d="M217.7,187.2c5.6,0 34,1 34,1l-1,15.3c0,0 -17.1,0.3 -20.9,0c-7.9,-0.8 -15.1,-7.9 -12.1,-16.3z" fill="#f01446"/></g><g><path d="M280.5,197.8l-1.3,0.3l-2.3,-5.9c0,0 1.6,-5.8 1.8,-7.8l1.3,-0.5c0.4,1 0.6,13.2 0.6,13.2z" fill="#000000"/><path d="M279.3,198.1l-23.3,4.8l0.7,-12.3l20.2,1.6z" fill="#00a08c"/></g><path d="M256,189.8l2.9,-0.1l-0.9,14.2h-3.5z" fill="#008264"/></g><g><path d="M254.7,134.9c0.9,-1.5 1.8,-3.6 4,-3c1.7,0.4 2.4,2.6 2.1,4.2c-0.3,1.6 -2.1,3.1 -3.8,3.1c-2.9,-0.1 -2.6,-2.2 -2.3,-4.3z" fill="#be8c64"/><path d="M258,138.3c-0.3,1.9 -5.4,10.7 -13,10.7c-7.6,0 -12.3,-8.5 -13.1,-11.1c-1.2,-4.1 -1.9,-9.7 -0.1,-13.6c1,-2.2 1.1,-1.9 3.2,-1.6l8.6,1.4l14.2,2.4c0.6,3.9 0.7,7.9 0.2,11.8z" fill="#f0b484"/><path d="M229.9,123.7c0,0 -3.9,1.3 -5.6,3.6c-2,2.9 -2.3,6.2 -3.2,9.5c-0.8,3 -2.3,5.8 -5.2,7.1c-3,1.3 -6.6,0.4 -8.2,-2.7c-2.7,-5.4 -0.2,-14.9 4.8,-18.2c2.8,-1.8 6.2,-1.9 9.3,-1.5c2.8,0.3 5.6,1.1 8.1,2.2z" fill="#000000"/><path d="M231.7,123.9c3,-5.6 10.3,-7.4 16.7,-6c8,1.7 10.7,7.3 10,14.1c-4.2,0.2 -26.4,-7.4 -26.7,-8.1z" fill="#000000"/><path d="M230.9,127.8c-1.2,-0.9 -1.7,-2.5 -1.1,-3.9c1,-2.5 3.5,-1.5 3.5,-1.5z" fill="#f01446"/><path d="M250,131.8c0.4,0.7 0.7,1.4 0.9,2.1c0.1,0.6 0.4,1.3 -0.2,1.9c-0.3,0.4 -0.9,0.5 -1.4,0.3c-0.4,-0.2 -0.5,-0.5 -0.6,-1c0,-0.9 0.2,-1.9 0.7,-2.7c0.2,-0.2 0.4,-0.4 0.6,-0.6z" fill="#be8c64"/><path d="M249.1,140.8c-1.2,2.3 -6.3,2.3 -7.4,0c-0.5,-1.1 -0.6,-3.2 1,-2.9c0.7,0.1 1.5,0.7 2.2,0.9c0.9,0.3 1.7,0.7 2.5,1c0.6,0.3 1.2,0.6 1.7,1z" fill="#000000"/><path d="M244.5,132c0.4,-0.1 0.7,0 0.8,0.2c0.1,0.4 0.1,1.7 -0.3,2l-0.5,-0.2z" fill="#000000"/><path d="M255,134.3c-0.5,-0.1 -0.8,-1 -0.5,-1.5c0.1,-0.2 0.2,-0.3 0.4,-0.3c0.1,0 0.3,0.2 0.3,0.4c0.1,0.4 0,0.9 -0.2,1.4z" fill="#000000"/><path d="M241.1,123.5l-8.1,12.7l-2.3,-0.2c0,0 -5.1,-16.2 10.5,-18.3z" fill="#000000"/><path d="M242.5,123.9l-3.8,10.4l-2.8,-12z" fill="#000000"/><path d="M233,131.3c0,0 2.1,4.4 2.2,6.3c-1.1,0 -4,0.8 -5.4,0.4c-1.1,-0.3 -2.3,-1.1 -2.6,-2.3c-0.2,-1.1 -0.8,-3.3 -0.4,-4.2c1.8,-3.7 6.2,-0.2 6.2,-0.2z" fill="#f0b484"/></g><g><path d="M291.8,169.2c-0.2,0.6 -6.8,5.1 -13.7,6.3c-8.4,1.4 -17.6,-0.6 -21.5,-1.5v-12.4c4,1.6 8.7,4.1 10.1,4.6c2.4,0.8 10.5,2.3 10.4,2.2c1.5,0.1 3.1,0.1 4.6,-0.2c1.2,-0.2 3.4,-1 4.4,-1.3c2.7,-0.8 4,-1.6 4.2,-1.2c0.2,0.3 -3.2,1.9 -2.8,2.4c0.4,0.5 3.7,-1.4 3.9,-0.9c0.2,0.5 -3.4,2.1 -2.8,2.7c0.6,0.5 3.8,-2.1 3.2,-0.7z" fill="#f0b484"/><path d="M259.9,161.9l-3.5,11.6c0,0 -7.9,-1.6 -10.7,-3c0,0 -8.3,-3.1 -5.5,-9.7c2.7,-6.5 6.8,-4.8 6.8,-4.8c-0.1,-0.1 12.9,5.9 12.9,5.9z" fill="#008264"/><path d="M261.4,162l-4.2,13.4l-2.7,-1l3.7,-14.2z" fill="#f01446"/><path d="M282.9,170.1c-1.7,-0.1 -2.1,-1.8 -2.1,-1.8c0,0 4.4,-4.1 4.8,-3.7c0.5,0.4 -0.4,1.5 -1.1,2.7c1.9,1.3 0,2.9 -1.6,2.8z" fill="#be8c64"/></g><path d="M249.9,163.5c1.2,12 2.4,26.8 2.4,26.8l-38.3,3c0,0 7.3,-20.5 10.8,-28.6c4.8,-11.3 12.6,-10.2 15.7,-10.5c4,-0.3 8.5,0.4 9.4,9.3z" fill="#00a08c"/><g><path d="M198.3,185.5c-2.2,-0.6 0.9,-9.2 1.4,-10c0.4,0.9 -0.4,9.6 -1.4,10z" fill="#be8c64"/><path d="M223.7,150.7c0,0 5.5,0.9 5,6.9c-0.5,5.9 -7.1,4.4 -7.1,4.4c-3.5,-0.6 -7.6,0.6 -10.4,2.5c-2.2,1.5 -5.4,5.2 -7.1,7.2c-3.6,4.3 -9.9,15.4 -10.2,15.1c-0.3,-0.2 1.7,-3.9 1.1,-4.3c-0.6,-0.4 -2.7,4.9 -3.3,4.3c-0.7,-0.6 1.8,-4.9 0.6,-5.3c-1.2,-0.4 -2.3,3.9 -2.8,3.2c-0.5,-0.7 5.6,-16.1 10,-22.8c2.4,-3.6 5.7,-6.2 9.4,-8.4c3,-1.8 11.2,-3.2 14.8,-2.8z" fill="#f0b484"/><path d="M243.8,153.5c3.8,1.9 8.5,8 1.6,13.9c-6.9,5.9 -14,-0.8 -14,-0.8c-5,-4.6 -11.5,-4.2 -11.5,-4.2l-1.2,-12.1c4.3,-0.5 8.7,-0.7 13,-0.3c4.3,0.4 8.9,2.1 12.1,3.5z" fill="#00a08c"/><path d="M220.7,149l1.4,15.5h-3.8l-1.4,-15.4z" fill="#f01446"/></g></g></g></svg>