<svg version="1.1" xmlns="http://www.w3.org/2000/svg" xmlns:xlink="http://www.w3.org/1999/xlink" width="107.25271" height="136.55409" viewBox="0,0,107.25271,136.55409"><g transform="translate(-186.39353,-111.30771)"><g data-paper-data="{&quot;isPaintingLayer&quot;:true}" fill-rule="evenodd" stroke="none" stroke-width="1" stroke-linecap="butt" stroke-linejoin="miter" stroke-miterlimit="10" stroke-dasharray="" stroke-dashoffset="0" style="mix-blend-mode: normal"><g><g><path d="M253.31351,221.8484c-2.6649,0.9107 -9.3974,0.6305 -9.3974,0.6305c0,0 -3.7169,-7.5655 -5.2597,-10.8579h12.5532c0.7013,3.0122 1.8935,9.1066 2.1039,10.2274z" fill="#f0b484"/><path d="M253.66421,217.085l-15.2182,-0.2802l-3.9273,-14.0102c0,0 1.052,-4.3431 8.9065,-3.3624c7.8546,0.9807 8.6961,8.5462 8.6961,8.5462z" fill="#e0d5d5"/></g><g><g><path d="M263.4647,246.0405c-0.4909,0.1401 -9.2572,1.8213 -9.2572,1.8213c-0.3506,-0.4203 -0.6311,-1.1208 -0.8415,-1.6112l5.3298,-1.401c0.7715,0.1401 3.787,0.4203 4.6286,0.4203c0,0.1401 0.2104,0.7005 0.1403,0.7706z" fill="#000000"/><path d="M253.29581,246.2506c-0.4909,-0.8406 -6.1714,-12.6792 -8.4857,-18.8436c-0.2805,-0.7005 -1.4727,-3.2924 -2.8052,-6.0244h12.2026l4.4883,23.467z" fill="#7700b3"/></g><path d="M242.35559,222.78363l12.27273,0.1401l0.49091,2.24162l-11.71169,0.07005z" fill="#e0d5d5"/><path d="M244.03871,226.63642l11.43117,-0.21015l0.49091,2.03147l-10.8,0.63046z" fill="#e0d5d5"/></g></g><g><g><path d="M214.55731,218.9666c1.1221,-1.6812 1.1922,-3.6426 1.3324,-5.4639c1.4026,-1.1208 10.7299,0.9807 12.4832,1.6812c-0.7013,3.5025 -1.613,7.1452 -3.8572,10.1573c-1.5428,-0.07 -3.5065,-2.2416 -4.8389,-3.0121c-1.613,-1.0508 -3.5065,-2.0315 -5.1195,-3.3625z" fill="#f0b484"/><path d="M233.00141,206.5676l-2.1039,11.7686l-17.7428,-4.5533l2.6649,-11.8386c0,0 1.9637,-7.1452 10.5195,-5.1137c8.6961,2.0315 6.6623,9.667 6.6623,9.737z" fill="#e0d5d5"/></g><g><path d="M194.56831,221.5565l-1.5429,4.8335c-0.6311,0.9106 -1.7532,3.0121 -2.2441,3.8528l-0.8416,0.07c0.2104,-0.8406 2.1039,-8.8964 2.8052,-9.1766h1.052c0.3506,0.1401 0.3506,0.1401 0.7714,0.4203z" fill="#000000"/><path d="M202.21251,231.3636c-3.4364,-1.401 -6.2416,-2.9422 -9.2572,-5.0437l1.5429,-4.8335c3.3662,2.3117 8.4156,3.8528 12.4831,2.732c2.4545,-0.8406 4.6286,-2.3117 6.1714,-4.3432c0.2805,-0.3502 0.9818,-1.471 1.1922,-1.8913l12.0624,6.7949c-1.1221,1.6112 -3.8572,4.8335 -5.4702,5.9543c-0.9818,0.7005 -2.8753,1.2609 -5.1195,1.5411c-2.3142,0.6305 -4.5584,0.7706 -6.8727,0.7005c-0.3506,0 -4.7688,-0.7705 -6.7324,-1.6111z" fill="#7700b3"/></g><path d="M223.74234,228.84379l-11.43117,-8.5462l1.12207,-1.33096l12.06234,7.98578z" fill="#e0d5d5"/><path d="M218.69298,232.06613l-8.34545,-9.87716l1.40259,-1.12081l10.16883,9.73705z" fill="#e0d5d5"/></g><path d="M215.87534,201.92589l2.45454,-10.50762l32.11948,6.23452l1.68312,10.36751c-1.12208,-0.21015 -36.25715,-6.16447 -36.25715,-6.09441z" fill="#e0d5d5"/><g><path d="M254.82171,139.3005c1.0519,-2.732 9.187,-4.3431 7.5038,1.1909c-1.6831,5.534 -7.5038,3.9228 -7.5038,3.9228c0,0 -0.5611,-3.7827 0,-5.1137z" fill="#be8c64"/><path d="M260.29181,135.5178c0.0701,5.9543 -2.4546,11.2781 -4.9792,14.0101c-4.3481,4.5533 -12.9039,3.6427 -15.1481,2.9422c-4.1377,-1.331 -8.0649,-7.2153 -10.3792,-12.6792c-0.7013,-2.1016 -1.3325,-4.2731 -1.8234,-6.5148l19.7065,-10.7878c0,0 8.9766,1.8914 9.4675,2.5919c0.7013,0.8406 3.1559,6.3046 3.1559,10.4376z" fill="#f0b484"/><path d="M225.99831,120.597l0.6311,-0.4204c-0.9818,-2.4517 -3.0155,-6.2345 0.9819,-7.0751c2.4545,-0.4903 5.961,2.2416 6.6623,4.4132c0.4208,0.2102 0.4208,0.2102 0.8416,-0.07c-0.2806,-1.8213 -1.1221,-4.133 0.4207,-5.534c4.5585,-2.5919 6.7325,3.8528 9.3974,6.4446l0.6312,-0.07c0.4909,-2.0315 -0.9117,-4.8335 2.1039,-4.9036c2.0338,-0.07 2.9455,1.6812 3.9273,3.0122c2.4545,3.1523 5.8208,8.7564 5.8208,8.7564c0,0 0,3.5025 -5.2598,4.4132c-2.5948,0.4903 -7.1532,-2.2417 -14.0961,0.4903c-6.9428,2.732 -6.8727,12.1888 -6.8727,12.1888c0,0 -7.6442,-14.0802 -8.5559,-16.1116c-0.7013,-1.5412 -2.5948,-5.9544 -0.9818,-7.2853c1.1922,-0.9807 3.2961,1.1208 4.3481,1.7513z" fill="#180000"/><path d="M232.23981,143.92389c0,0 -5.8207,1.6111 -7.5039,-3.9229c-1.6831,-5.534 6.452,-3.9228 7.5039,-1.1908c0.4909,1.3309 0,5.1137 0,5.1137z" fill="#f0b484"/><path d="M243.11001,142.5228c3.0155,0.2802 5.7506,1.4011 8.5558,2.5919c-1.4026,4.7635 -11.361,1.7513 -8.5558,-2.5919z" fill="#000000"/><path d="M248.58011,141.0518c-1.6831,-3.0122 4.839,-5.7442 5.6805,-1.331c0.5611,3.4325 -3.6467,1.8213 -5.6805,1.331z" fill="#be8c64"/><g fill="#000000"><path d="M242.91661,138.0304l-0.4208,0.9807h-0.7013c-0.2104,-1.1909 0.7013,-3.0122 1.1221,-0.9807z"/><path d="M258.06471,140.5522l-0.6312,-0.07l-0.2104,-1.401c0.4208,-0.4904 0.4208,-0.4904 0.8416,-0.3503c0.2104,0.5604 0.2104,1.1909 0,1.8213z"/></g></g><g><path d="M293.5956,172.9136c-0.2104,0.5604 -6.9429,5.1838 -14.026,6.3746c-8.6259,1.4011 -18.0935,-0.6304 -22.0207,-1.5411v-12.6091c4.1376,1.7513 8.9064,4.2731 10.309,4.7634c2.3845,0.8407 10.6598,2.3117 10.5897,2.2417c1.6129,0.07 3.2259,0.07 4.7688,-0.2102c1.1922,-0.2101 3.4363,-1.0507 4.4182,-1.331c2.8052,-0.7705 4.1376,-1.6111 4.348,-1.1908c0.0701,0.3502 -3.3662,1.9614 -2.9454,2.4518c0.4207,0.4903 3.8571,-1.4011 4.0675,-0.9107c0.3506,0.5604 -3.4364,2.1716 -2.8052,2.802c0.561,0.6305 3.787,-2.0314 3.2961,-0.8406z" fill="#f0b484"/><path d="M264.14111,166.1888c0,0.2802 -3.6468,14.7106 -3.6468,14.7106c0,0 -11.0104,-3.5025 -13.8156,-4.9035c0,0 -12.8337,-5.6742 -9.9584,-13.0295c2.8753,-7.3553 11.0805,-3.2924 11.0805,-3.2924c-0.1403,-0.1401 15.4987,6.0944 16.3403,6.5148z" fill="#7700b3"/><path d="M284.40861,174.0344c-1.6831,-0.07 -2.1039,-1.8213 -2.1039,-1.8213c0,0 4.4182,-4.133 4.9792,-3.7127c0.4909,0.4203 -0.4208,1.5411 -1.1221,2.8021c1.7533,1.2609 0,2.872 -1.7532,2.7319z" fill="#be8c64"/></g><g><path d="M195.39741,188.9358c-2.2442,-0.6304 0.9117,-9.3868 1.4026,-10.1573c0.4208,0.9106 -0.4208,9.667 -1.4026,10.1573z" fill="#be8c64"/><path d="M221.62601,153.4901l-2.4546,12.6092c-3.6467,-0.6305 -7.7844,0.6304 -10.5896,2.5218c-2.174,1.5411 -5.4701,5.3239 -7.1532,7.3553c-3.787,4.3432 -10.0987,15.6213 -10.5195,15.3411c-0.4208,-0.2802 1.6831,-3.9928 1.1221,-4.4132c-0.5611,-0.4203 -2.5948,4.9036 -3.2961,4.3432c-0.7013,-0.5604 1.9636,-4.8335 0.6311,-5.3239c-1.3324,-0.4903 -2.4545,3.9229 -2.9454,3.2224c-0.4909,-0.7005 5.7506,-16.3919 10.1688,-23.1168c2.3143,-3.5726 5.4701,-6.5848 9.187,-8.6863c3.0156,-1.8213 12.2026,-4.203 15.8494,-3.8528z" fill="#f0b484"/><path d="M246.17141,158.7439c0,0 3.0857,3.4325 -2.3143,9.4569c-5.4,6.0244 -14.5168,1.6812 -14.5168,1.6812c-5.6806,-2.4518 -12.1325,-2.732 -12.1325,-2.732l-0.8416,-14.2203c0,0 2.7351,-1.0507 10.3091,-0.4203c7.5741,0.6305 19.2857,6.1645 19.4961,6.2345z" fill="#7700b3"/></g><path d="M251.7117,199.75432l-37.72987,-3.29238c0,0 7.08311,-19.82437 11.01039,-27.81016c0.77143,-1.68122 5.96104,-7.42538 6.24156,-7.63553c2.66494,-1.96142 6.59221,-2.87208 9.81819,-3.15229c9.67792,-0.84061 14.93766,9.667 14.72727,18.2132c-0.14026,4.5533 -4.13766,23.67716 -4.06753,23.67716z" fill="#b621ff"/></g></g></svg>