<svg version="1.1" xmlns="http://www.w3.org/2000/svg" xmlns:xlink="http://www.w3.org/1999/xlink" width="107.56925" height="137.56991" viewBox="0,0,107.56925,137.56991"><g transform="translate(-186.47732,-111.49408)"><g data-paper-data="{&quot;isPaintingLayer&quot;:true}" fill-rule="evenodd" stroke="none" stroke-width="1" stroke-linecap="butt" stroke-linejoin="miter" stroke-miterlimit="10" stroke-dasharray="" stroke-dashoffset="0" style="mix-blend-mode: normal"><g><path d="M293.99311,173.1471c-0.2024,0.5036 -6.9836,5.137 -14.0684,6.3457c-8.603,1.4101 -18.117,-0.6044 -22.0642,-1.5109v-12.5906c4.1497,1.7123 8.9066,4.2304 10.3236,4.7341c2.4291,0.8058 10.7285,2.3166 10.6272,2.2159c1.6194,0.1007 3.2388,0.1007 4.757,-0.2014c1.2146,-0.2015 3.4412,-1.0073 4.4533,-1.3095c2.834,-0.8058 4.1497,-1.6116 4.3521,-1.2087c0.1013,0.3022 -3.3399,1.9138 -2.9351,2.4174c0.4048,0.5037 3.8461,-1.4101 4.0485,-0.9065c0.3036,0.6044 -3.4412,2.2159 -2.834,2.8203c0.6073,0.6043 3.8461,-2.0145 3.34,-0.8058z" fill="#f0b484"/><path d="M264.43931,166.3986c0,0.3021 -3.6437,14.7057 -3.6437,14.7057c0,0 -11.0321,-3.5253 -13.866,-4.9355c0,0 -12.9551,-5.6405 -10.02,-12.9934c2.9352,-7.3529 11.1333,-3.324 11.1333,-3.324c-0.1012,-0.1007 15.5867,6.1443 16.3964,6.5472z" fill="#7700b3"/><path d="M284.78291,174.2551c-1.7207,-0.1008 -2.1255,-1.8131 -2.1255,-1.8131c0,0 4.4533,-4.1297 4.9594,-3.7268c0.506,0.4029 -0.4049,1.5109 -1.1133,2.8203c1.8218,1.2087 0,2.8203 -1.7206,2.7196z" fill="#be8c64"/></g><g><path d="M195.51391,189.1623c-2.2266,-0.6043 0.9109,-9.3674 1.417,-10.1732c0.4048,0.9066 -0.4049,9.6696 -1.417,10.1732z" fill="#f5d761"/><path d="M221.82901,153.808l-2.4291,12.5906c-3.6436,-0.6044 -7.7933,0.6043 -10.6272,2.5181c-2.2267,1.5108 -5.4655,5.3384 -7.1861,7.3529c-3.7448,4.3311 -10.1212,15.6123 -10.526,15.3101c-0.4049,-0.3022 1.7206,-4.029 1.1133,-4.4319c-0.6072,-0.4029 -2.6315,4.9355 -3.34,4.3312c-0.7084,-0.6044 1.9231,-4.8348 0.6073,-5.3384c-1.3157,-0.5036 -2.4291,3.9282 -2.9351,3.2232c-0.5061,-0.7051 5.769,-16.4181 10.2224,-23.1667c2.3278,-3.5254 5.4654,-6.5471 9.2103,-8.6623c3.0363,-1.8131 12.2466,-4.2305 15.8902,-3.7268z" fill="#f0b484"/><path d="M246.42351,158.8442c0,0 3.1376,3.4246 -2.3278,9.4681c-5.4655,6.0435 -14.5746,1.7123 -14.5746,1.7123c-5.6678,-2.4174 -12.1454,-2.7195 -12.1454,-2.7195l-0.8097,-14.2022c0,0 2.7327,-1.0072 10.3236,-0.4029c7.5909,0.6043 19.3315,6.1442 19.5339,6.1442z" fill="#7700b3"/></g><g><path d="M237.11201,210.2138c-1.8218,3.3239 -6.2751,12.3891 -7.0848,13.5978l-12.0442,-0.3022c0.1012,-0.9065 1.7206,-8.1587 2.6315,-13.2956z" fill="#f0b484"/><path d="M216.97091,246.1725c0,0.1007 0,0.1007 0,0.1007c3.4412,0.5036 4.1496,0.7051 6.3763,1.108l0.6073,1.1079c-0.6073,0.7051 -10.9309,0.6044 -13.0564,0.5037l-0.506,-1.108c0,-0.2015 0.1012,-0.4029 0.1012,-0.6044z" fill="#000000"/><path d="M216.97091,246.1725l-6.4776,1.1079c1.923,-8.3601 4.9594,-16.6195 7.186,-24.879c4.5546,-0.2014 9.2103,-0.1007 13.8661,-0.2014c-0.2025,0.4029 -5.4655,9.4681 -7.9958,13.4971c-1.6194,2.6188 -3.2388,5.2377 -4.8581,7.8565c-0.7085,1.2087 -0.911,1.2087 -1.7206,2.6189z" fill="#7700b3"/><path d="M229.92599,226.02754l-13.5624,-0.20145l0.50606,-2.01449l14.47331,-0.20145z" fill="#f5cfcf"/><path d="M227.4969,230.56015l-12.34786,-0.8058l0.70848,-2.11522l13.05634,0.50362z" fill="#f5cfcf"/><path d="M216.76841,215.8543c1.5182,-3.8275 2.834,-7.7557 3.8461,-11.7847c0.6073,-2.3167 0.7085,-5.3384 1.8218,-7.5544l22.7727,-0.6043c-0.3037,2.6188 -9.6152,20.2456 -9.6152,20.2456z" fill="#e0d5d5"/></g><g><path d="M262.11141,205.0768c-2.3279,0.8058 -9.4127,1.8131 -11.8418,1.108l-0.2024,-12.792c0,0 10.9308,0.5036 12.3478,0.9065c-0.1012,1.7123 0.1012,8.763 -0.3036,10.7775z" fill="#f0b484"/><path d="M218.38781,189.5652c6.0727,0 37.246,2.4174 37.246,2.4174l-1.2145,15.1087c0,0 -18.623,0.3022 -22.7727,0c-8.603,-0.7051 -16.3963,-8.3601 -13.2588,-17.5261z" fill="#e0d5d5"/><path d="M287.00951,200.4435l-0.1012,0.7051l-1.5182,0.3021l-1.6194,-6.3456c0,0 0.9109,-5.137 1.1134,-7.3529l0.7084,-0.1008c0.8097,0.7051 1.417,12.6914 1.417,12.7921z" fill="#000000"/><path d="M283.77074,195.10507l1.51818,6.34565l-25.20177,5.13696l0.8097,-13.29565z" fill="#7700b3"/><path d="M260.99806,206.78913l1.41697,-13.69855l2.12545,0.10072l-0.8097,12.89275z" fill="#f5cfcf"/><path d="M265.35017,205.88261l1.01212,-12.59058l2.12545,0.20145l-0.50606,11.68406z" fill="#f5cfcf"/></g><path d="M254.21686,191.88188l-38.25811,3.52536c0,0 1.31576,-14.00072 9.21029,-26.5913c1.01212,-1.61159 5.9715,-7.45362 6.27514,-7.65507c2.63151,-1.91377 6.57878,-2.82029 9.81756,-3.12246c9.71635,-0.8058 14.97937,9.66957 14.77694,18.23116c-0.10121,4.53261 -1.82181,15.71304 -1.82181,15.61232z" fill="#b621ff"/><g><path d="M255.12781,139.5051c1.0121,-2.7196 9.109,-4.3312 7.4896,1.2087c-1.6194,5.5398 -7.4896,3.9282 -7.4896,3.9282c0,0 -0.6073,-3.8275 0,-5.1369z" fill="#be8c64"/><path d="M260.59321,135.7783c0.1012,5.9427 -2.4291,11.2811 -4.9594,14.0007c-4.3521,4.5326 -12.9551,3.6261 -15.1818,2.921c-4.1497,-1.3094 -8.0969,-7.2522 -10.4248,-12.6913c-0.7085,-2.1152 -1.3158,-4.3312 -1.8218,-6.5471l19.7363,-10.7775c0,0 9.0079,1.9137 9.5139,2.6188c0.7085,0.8058 3.1376,6.2449 3.1376,10.4754z" fill="#f0b484"/><path d="M226.18111,120.7703l0.6073,-0.4029c-0.9109,-2.4174 -2.9351,-6.2449 1.0121,-7.0507c2.4291,-0.5037 5.9715,2.2159 6.68,4.4319c0.4049,0.2014 0.4049,0.2014 0.8097,-0.1008c-0.3036,-1.813 -1.1133,-4.1297 0.4049,-5.5398c4.5545,-2.6189 6.7812,3.8275 9.4127,6.4463l0.6072,-0.1007c0.5061,-2.0145 -0.9109,-4.8348 2.1255,-4.9355c2.0242,0 2.9351,1.7123 3.9473,3.0218c2.429,3.1224 5.8703,8.763 5.8703,8.763c0,0 0,3.5254 -5.2631,4.4319c-2.6315,0.5036 -7.186,-2.216 -14.1696,0.5036c-6.9837,2.7196 -6.8825,12.1877 -6.8825,12.1877c0,0 -7.5908,-14.1015 -8.5018,-16.116c-0.7084,-1.5108 -2.6315,-5.9427 -1.0121,-7.2521c1.2146,-1.0073 3.34,1.1079 4.3521,1.7123z" fill="#180000"/><path d="M232.45631,144.1384c0,0 -5.8703,1.6116 -7.4897,-3.9283c-1.6194,-5.5398 6.4776,-3.9282 7.4897,-1.2087c0.506,1.3095 0,5.137 0,5.137z" fill="#f0b484"/><path d="M243.38721,142.7283c3.0363,0.3021 5.769,1.4101 8.603,2.6188c-1.417,4.7341 -11.437,1.7123 -8.603,-2.6188z" fill="#000000"/><path d="M248.85261,141.2174c-1.7206,-3.0217 4.8582,-5.7413 5.6679,-1.3094c0.6073,3.4246 -3.6436,1.813 -5.6679,1.3094z" fill="#be8c64"/><path d="M243.18471,138.1957l-0.4048,1.0072h-0.7085c-0.2024,-1.2087 0.7085,-3.0217 1.1133,-1.0072z" fill="#000000"/><path d="M258.36651,140.7138l-0.6072,-0.1008l-0.2025,-1.4101c0.4049,-0.4029 0.4049,-0.4029 0.8097,-0.3022c0.2025,0.6044 0.2025,1.2087 0,1.8131z" fill="#000000"/></g></g></g></svg>