<svg version="1.1" xmlns="http://www.w3.org/2000/svg" xmlns:xlink="http://www.w3.org/1999/xlink" width="144.49856" height="140.60032" viewBox="0,0,144.49856,140.60032"><g transform="translate(-167.40345,-109.59598)"><g data-paper-data="{&quot;isPaintingLayer&quot;:true}" fill-rule="evenodd" stroke="none" stroke-width="1" stroke-linecap="butt" stroke-linejoin="miter" stroke-miterlimit="10" stroke-dasharray="" stroke-dashoffset="0" style="mix-blend-mode: normal"><g><g fill="#f0b484"><path d="M214.7574,213.9661h12.5464c-1.5177,3.3306 -5.2614,10.9003 -5.2614,10.9003c0,0 -6.8803,0.3028 -9.4098,-0.6056c0.2023,-1.2111 1.4165,-7.2669 2.1248,-10.2947z"/></g><path d="M207.3712,246.4652l5.6661,1.413c-0.5059,1.0093 -0.8094,2.1195 -0.8094,2.1195c-0.1012,0.4037 -10.9276,-1.0093 -11.4335,-1.0093c0,0 0.1012,-1.0093 0.1012,-1.1102c1.0118,-0.1009 6.4756,-1.413 6.4756,-1.413z" fill="#000000"/><g><path d="M221.1318,229.9128c-1.9225,5.0465 -6.2732,14.231 -8.0945,17.9654l-5.6661,-1.413l4.3508,-22.6081h12.2428c-1.2141,2.7251 -2.5295,5.3492 -2.833,6.0557z" fill="#7700b3"/><path d="M222.04241,228.80263l-11.43344,-1.61486l0.5059,-2.01858l12.04053,1.21115z" fill="#e0d5d5"/><path d="M220.82823,232.73886l-11.43344,-1.71579l0.5059,-2.01858l12.04053,1.21115z" fill="#e0d5d5"/></g></g><g><g fill="#f0b484"><path d="M264.7407,224.2608c-2.5295,0.9084 -9.4098,0.6056 -9.4098,0.6056c0,0 -3.7437,-7.5697 -5.2614,-10.9003h12.5464c0.8095,3.0278 1.9225,9.0836 2.1248,10.2947z"/></g><path d="M276.5789,248.9884c-0.5059,0 -11.3323,1.6149 -11.3323,1.1102c0,0 -0.3035,-1.1102 -0.8094,-2.1195l5.5649,-2.2204c0,0 5.565,2.0186 6.5768,2.1195c0.1012,0.1009 0.1012,1.1102 0,1.1102z" fill="#000000"/><g><path d="M270.1033,245.7587l-5.5649,2.2204c-1.8213,-3.7343 -6.1721,-13.0198 -8.0945,-17.9653c-0.3035,-0.8075 -1.5177,-3.3307 -2.8331,-6.1567h12.2429z" fill="#7700b3"/><path d="M254.52147,226.48127l12.04053,-1.21115l0.5059,2.01858l-11.43344,1.61486z" fill="#e0d5d5"/><path d="M255.73564,230.31657l12.04053,-1.21115l0.5059,2.01858l-11.43344,1.71579z" fill="#e0d5d5"/></g></g><g><path d="M248.0459,137.6638c1.113,-2.7251 9.2075,-4.3399 7.5886,1.2112c-1.6189,5.5511 -7.4874,3.9362 -7.4874,3.9362c0,0 -0.5059,-3.8353 -0.1012,-5.1474z" fill="#be8c64"/><path d="M253.4085,133.8285c0.2023,5.9548 -2.4284,11.3041 -4.9579,14.0291c-4.3508,4.5418 -12.9511,3.6335 -15.1771,2.927c-4.1484,-1.3121 -8.0945,-7.2669 -10.4216,-12.7171c-0.8095,-2.1195 -1.4166,-4.3399 -1.9225,-6.5604l19.8315,-10.7993c0,0 9.0051,1.9176 9.511,2.6241c0.6071,0.8074 3.0354,6.2576 3.1366,10.4966z" fill="#f0b484"/><path d="M219.2093,118.891l0.6071,-0.4037c-0.9106,-2.4223 -3.0354,-6.3585 1.0118,-7.065c2.4284,-0.5047 5.9697,2.2204 6.7792,4.4409c0.4047,0.2018 0.4047,0.2018 0.8094,-0.101c-0.4047,-1.8167 -1.113,-4.138 0.4047,-5.5511c4.5532,-2.6241 6.7791,3.8353 9.4098,6.4595l0.6071,-0.1009c0.5059,-2.0186 -0.9106,-4.8446 2.1248,-4.9455c2.0236,0 2.9343,1.7157 3.9461,3.0278c2.4283,3.1288 5.8685,8.8818 5.8685,8.8818c0,0 0,3.5325 -5.2614,4.4408c-2.6307,0.5047 -7.1839,-2.2204 -14.1654,0.5047c-7.0826,2.7251 -6.8803,12.2124 -6.8803,12.2124c0,0 -7.5885,-14.1301 -8.4991,-16.1486c-0.7083,-1.514 -2.6308,-6.0558 -1.0119,-7.2669c1.113,-1.1102 3.2378,0.9083 4.2496,1.6148z" fill="#180000"/><path d="M225.3814,142.3065c0,0 -5.8685,1.6149 -7.4874,-3.9362c-1.6189,-5.5511 6.4756,-3.9362 7.5886,-1.2111c0.5059,1.312 -0.1012,5.1473 -0.1012,5.1473z" fill="#f0b484"/><path d="M234.7912,142.7103c3.0354,-0.5047 5.9697,-0.3028 9.0051,0.1009c0,5.0464 -10.4216,4.9455 -9.0051,-0.1009z" fill="#000000"/><path d="M238.3325,138.3703c-2.1248,-2.826 4.1484,-6.2576 5.4638,-1.9176c1.0118,3.3306 -3.4402,2.2204 -5.4638,1.9176z" fill="#be8c64"/><path d="M232.3629,136.049l-0.3036,1.1102h-0.7083c-0.4047,-1.3121 0.3036,-3.1288 1.0119,-1.1102z" fill="#000000"/><path d="M248.0459,136.7555h-0.6071l-0.4047,-1.4131c0.3035,-0.5046 0.3035,-0.5046 0.8094,-0.4037c0.3036,0.5047 0.4048,1.2112 0.2024,1.8168z" fill="#000000"/></g><path d="M209.79952,218.30602c1.51771,-4.64273 4.35078,-12.61612 5.86849,-17.25885c0.70827,-2.11951 1.41653,-4.23901 2.1248,-6.45945c0.30354,-0.80743 2.02362,-5.34923 2.02362,-5.34923c0,0 3.33897,-10.59754 18.81965,-10.69847c15.48068,-0.10093 20.74208,13.12076 21.75389,16.85513c1.72008,6.66131 4.45196,16.95606 5.66613,22.60808l-17.30193,0.7065l-5.66613,-16.35048v0.10093l-9.511,0.10093l-5.05904,15.84584z" fill="#e0d5d5"/><g><path d="M173.172,160.8775c-0.1011,-0.7065 -4.5531,-0.6056 -4.6543,-1.1103c-0.1012,-0.5046 48.9716,-1.8167 50.7928,-2.4222c0,0 7.285,-0.4038 7.4874,5.7529c0.2024,6.1567 -8.0945,5.5511 -8.0945,5.5511c-9.0051,0.6056 -49.9833,-2.826 -50.388,-3.6334c-0.4048,-0.8075 4.2495,0.3027 4.4519,-1.2112c0.2024,-1.413 -5.1602,-1.0093 -5.3626,-1.9176c-0.1012,-0.8075 5.9697,-0.3028 5.7673,-1.0093z" fill="#f0b484"/><path d="M182.7842,159.0607c0.4047,1.1103 0.2024,4.4409 -2.9342,4.1381c-3.1366,-0.3028 -1.5177,-3.0278 -2.0236,-3.9362c-0.5059,-1.0093 -3.9461,-2.0186 -3.7437,-2.826c0.9106,-0.7065 8.2968,1.5139 8.7015,2.6241z" fill="#be8c64"/><path d="M211.6208,156.3357h17.8078c3.5413,-0.101 6.5768,1.0093 6.5768,7.1659c0,6.1567 -6.3744,6.9641 -9.1063,6.9641c-2.7319,0 -14.7724,0 -14.9748,0c-0.5059,-0.5046 -0.4047,-12.9189 -0.3035,-14.13z" fill="#7700b3"/></g><g><path d="M311.89099,161.7858c-0.2023,0.9084 -5.5649,0.5047 -5.3626,1.9177c0.2024,1.5139 4.7556,0.4037 4.452,1.2111c-0.3035,0.8075 -41.5853,4.9455 -50.5904,4.34c0,0 -8.8028,0.4037 -8.8028,-6.3586c0,-6.7622 8.4992,-5.551 8.4992,-5.551c1.8213,0.6055 50.894,1.9176 50.7928,2.4222c-0.1012,0.5047 -4.5531,0.4038 -4.6543,1.1103c-0.1012,0.7065 5.9697,0.1009 5.6661,0.9083z" fill="#f0b484"/><path d="M305.3143,156.4366c0.2023,0.8074 -3.2378,1.8167 -3.7437,2.826c-0.5059,0.9084 1.113,3.6334 -2.0236,3.9362c-3.1366,0.3028 -3.339,-3.0278 -2.9343,-4.1381c0.3036,-1.1102 7.8921,-3.3306 8.7016,-2.6241z" fill="#be8c64"/><path d="M266.66319,170.4657c-0.2024,0 -12.9512,-0.1009 -15.7842,-0.1009c-2.8331,0 -8.3981,-0.7065 -8.3981,-6.8632c0,-6.1566 3.0355,-7.2669 6.5768,-7.1659h17.8078c0.1012,1.2111 0.2024,13.6254 -0.2023,14.13z" fill="#7700b3"/></g><path d="M249.86715,156.33567c2.93425,10.49661 12.95115,40.57343 12.95115,40.57343l-49.27509,2.52322c0,0 12.84997,-33.20562 15.8854,-43.09665z" fill="#b621ff"/></g></g></svg>