<svg version="1.1" xmlns="http://www.w3.org/2000/svg" xmlns:xlink="http://www.w3.org/1999/xlink" width="87.30943" height="140.60032" viewBox="0,0,87.30943,140.60032"><g transform="translate(-196.49335,-109.59598)"><g data-paper-data="{&quot;isPaintingLayer&quot;:true}" fill-rule="evenodd" stroke="none" stroke-width="1" stroke-linecap="butt" stroke-linejoin="miter" stroke-miterlimit="10" stroke-dasharray="" stroke-dashoffset="0" style="mix-blend-mode: normal"><g><g fill="#f0b484"><path d="M214.40921,213.9661h12.5425c-1.5172,3.3306 -5.2597,10.9003 -5.2597,10.9003c0,0 -6.8782,0.3028 -9.4069,-0.6056c0.2023,-1.2111 1.416,-7.2669 2.1241,-10.2947z"/></g><path d="M207.02531,246.4652l5.6644,1.413c-0.5058,1.0093 -0.8092,2.1195 -0.8092,2.1195c-0.1012,0.4037 -10.9242,-1.0093 -11.4299,-1.0093c0,0 0.1011,-1.0093 0.1011,-1.1102c1.0115,-0.1009 6.4736,-1.413 6.4736,-1.413z" fill="#000000"/><g><path d="M220.78161,229.9128c-1.9218,5.0465 -6.2713,14.231 -8.0919,17.9654l-5.6644,-1.413l4.3494,-22.6081h12.2391c-1.2138,2.7251 -2.5287,5.3492 -2.8322,6.0557z" fill="#7700b3"/><path d="M221.69196,228.80263l-11.42989,-1.61486l0.50575,-2.01858l12.03678,1.21115z" fill="#f5cfcf"/><path d="M220.47817,232.73886l-11.42989,-1.71579l0.50575,-2.01858l12.03678,1.21115z" fill="#f5cfcf"/></g></g><g><g fill="#f0b484"><path d="M264.37701,224.2608c-2.5287,0.9084 -9.4069,0.6056 -9.4069,0.6056c0,0 -3.7425,-7.5697 -5.2598,-10.9003h12.5426c0.8092,3.0278 1.9218,9.0836 2.1241,10.2947z"/></g><path d="M276.21151,248.9884c-0.5058,0 -11.3287,1.6149 -11.3287,1.1102c0,0 -0.3035,-1.1102 -0.8092,-2.1195l5.5632,-2.2204c0,0 5.5632,2.0186 6.5747,2.1195c0.1011,0.1009 0.1011,1.1102 0,1.1102z" fill="#000000"/><g><path d="M269.73791,245.7587l-5.5632,2.2204c-1.8207,-3.7343 -6.1701,-13.0198 -8.0919,-17.9653c-0.3035,-0.8075 -1.5173,-3.3307 -2.8322,-6.1567h12.2391z" fill="#7700b3"/><path d="M254.16093,226.48127l12.03678,-1.21115l0.50575,2.01858l-11.42989,1.61486z" fill="#f5cfcf"/><path d="M255.37472,230.31657l12.03678,-1.21115l0.50575,2.01858l-11.42989,1.71579z" fill="#f5cfcf"/></g></g><g><path d="M247.68741,137.6638c1.1126,-2.7251 9.2046,-4.3399 7.5862,1.2112c-1.6184,5.5511 -7.4851,3.9362 -7.4851,3.9362c0,0 -0.5057,-3.8353 -0.1011,-5.1474z" fill="#be8c64"/><path d="M252.94711,133.8285c0.2023,5.9548 -2.4276,11.3041 -4.9563,14.0291c-4.2483,4.5418 -12.9471,3.6335 -15.1724,2.927c-4.1471,-1.3121 -8.092,-7.2669 -10.4184,-12.7171c-0.8092,-2.1195 -1.4161,-4.3399 -1.9218,-6.5604l19.9264,-10.7993c0,0 9.0023,1.9176 9.508,2.6241c0.6069,0.8074 3.0345,6.2576 3.0345,10.4966z" fill="#f0b484"/><path d="M218.75861,118.891l0.6069,-0.4037c-0.9103,-2.4223 -3.0345,-6.3585 1.0115,-7.065c2.4276,-0.5047 5.9678,2.2204 6.777,4.4409c0.4046,0.2018 0.4046,0.2018 0.8092,-0.101c-0.4046,-1.8167 -1.1126,-4.138 0.4046,-5.5511c4.6529,-2.6241 6.8782,3.8353 9.4069,6.4595l0.6069,-0.1009c0.5058,-2.0186 -0.9103,-4.8446 2.1241,-4.9455c2.023,0 2.9334,1.7157 3.9449,3.0278c2.4276,3.1288 5.8666,8.8818 5.8666,8.8818c0,0 0,3.5325 -5.2597,4.4408c-2.6299,0.5047 -7.1816,-2.2204 -14.2621,0.5047c-7.0805,2.7251 -6.8782,12.2124 -6.8782,12.2124c0,0 -7.5862,-14.1301 -8.4965,-16.1486c-0.7081,-1.514 -2.6299,-6.0558 -1.0115,-7.2669c1.2138,-1.1102 3.4391,0.9083 4.3494,1.6148z" fill="#180000"/><path d="M225.02991,142.3065c0,0 -5.8667,1.6149 -7.4851,-3.9362c-1.6184,-5.5511 6.4736,-3.9362 7.5862,-1.2111c0.5058,1.312 -0.1011,5.1473 -0.1011,5.1473z" fill="#f0b484"/><path d="M234.43681,142.7103c3.0345,-0.5047 5.9678,-0.3028 9.0023,0.1009c0,5.0464 -10.5196,4.9455 -9.0023,-0.1009z" fill="#000000"/><path d="M237.97701,138.3703c-2.1241,-2.826 4.1471,-6.2576 5.4621,-1.9176c1.0115,3.3306 -3.4391,2.2204 -5.4621,1.9176z" fill="#be8c64"/><path d="M231.90801,136.049l-0.3034,1.1102h-0.708c-0.3035,-1.3121 0.4045,-3.1288 1.0114,-1.1102z" fill="#000000"/><path d="M247.68741,136.7555h-0.6069l-0.4046,-1.4131c0.3034,-0.5046 0.3034,-0.5046 0.8092,-0.4037c0.3034,0.5047 0.4046,1.2112 0.2023,1.8168z" fill="#000000"/></g><path d="M217.24139,198.01931l-3.84368,13.01983c-0.8092,-1.00929 -1.21379,-3.22973 -1.21379,-3.22973l1.51724,-9.0836z" fill="#be8c64"/><path d="M267.51265,196.60631v2.11951c-3.54023,2.82601 -4.04598,13.12076 -4.04598,13.12076l-3.94483,-14.93748z" fill="#be8c64"/><path d="M210.56553,218.10417c1.21379,-5.85388 2.73103,-11.5059 4.65287,-17.05699c0.70805,-2.11951 1.41609,-4.23901 2.12414,-6.45945c0.2023,-0.80743 4.65287,-11.90961 4.65287,-11.90961c0,0 25.18621,2.62415 35.30115,2.82601c1.11264,2.42229 5.86667,23.81923 7.78851,32.70097h-17.1954l-5.15862,-15.94677v0.10093l-9.50805,0.10093l-5.15862,15.24027z" fill="#e0d5d5"/><path d="M277.93104,194.78958c-2.02299,2.42229 -4.65287,4.13809 -7.58621,5.04645c-1.51724,0.40372 -3.13563,0.30279 -4.24828,1.51393c-0.6069,0.60557 -1.41609,2.11951 -1.61839,2.22044c-1.11264,-2.22044 -0.91034,-2.72508 -2.22529,-4.74366c-1.31494,-2.01858 -4.55172,-0.60557 -5.46207,-2.62415c1.41609,-1.11022 4.34943,-0.30279 6.06897,-0.90836c1.71954,-0.60557 6.06897,-2.32137 7.58621,-4.44087c1.51724,-2.01858 4.75402,-5.65202 2.73103,-12.31333c-2.02299,-6.56038 -8.09195,-9.18453 -14.36322,-9.18453c0,0 -5.76552,-1.413 -5.05747,-6.15666c0.70805,-4.74366 4.95632,-4.84459 4.95632,-4.84459c0.91034,0 10.82299,1.413 17.8023,6.35852c3.74253,2.62415 6.87816,9.89103 7.18161,12.41426c0.70805,5.34923 -2.22529,13.62541 -5.76552,17.66256z" fill="#f0b484"/><path d="M217.03909,198.62488c-1.41609,0.30279 -1.82069,0.60557 -2.42759,2.01858c-1.11264,2.62415 -1.41609,4.33994 -2.42759,7.16595c-0.91034,-2.01858 0.70805,-4.03716 -0.70805,-5.85388c-1.11264,-1.51393 -4.14713,-2.22044 -5.56322,-3.33065c-4.85517,-3.73437 -7.9908,-8.98267 -9.10345,-14.93748c-1.11264,-5.85388 0.70805,-14.23098 5.56322,-18.57092c5.56322,-4.84459 12.13793,-7.06502 16.48736,-6.9641c0,0 6.37241,-0.80743 6.67586,4.74366c0.30345,5.55109 -4.24828,5.95481 -4.24828,5.95481c-0.30345,0.10093 -9.10345,-0.40372 -13.14943,5.2483c-4.04598,5.65202 -3.74253,11.5059 -1.11264,16.14863c1.21379,2.22044 3.03448,4.64273 5.05747,5.85388c1.01149,0.60557 2.12414,1.00929 3.33793,1.21115c0.91034,0 3.13563,-0.90836 3.94483,-0.10093c1.41609,1.51393 -1.71954,1.21115 -2.32644,1.413z" fill="#f0b484"/><path d="M253.95863,170.7685c2.02299,7.97338 5.05747,16.65327 6.17011,21.49786l-20.73563,0.80743l-22.75862,0.90836c2.02299,-7.6706 5.15862,-15.74491 7.18161,-23.41551c-1.82069,0.10093 -3.64138,-0.10093 -5.46207,-0.30279c0,0 -5.56322,-11.40497 -5.46207,-12.61612c0,0 12.13793,-3.1288 25.5908,-2.82601c8.29425,0.30279 16.68966,1.21115 24.88276,2.72508c0,0.40372 -3.33793,13.22169 -3.33793,13.22169c0,0 -1.51724,0.30279 -6.06897,0z" fill="#b621ff"/></g></g></svg>