<svg version="1.1" xmlns="http://www.w3.org/2000/svg" xmlns:xlink="http://www.w3.org/1999/xlink" width="102.40344" height="124.46193" viewBox="0,0,102.40344,124.46193"><g transform="translate(-188.79827,-117.76904)"><g data-paper-data="{&quot;isPaintingLayer&quot;:true}" fill-rule="evenodd" stroke="none" stroke-width="1" stroke-linecap="butt" stroke-linejoin="miter" stroke-miterlimit="10" stroke-dasharray="" stroke-dashoffset="0" style="mix-blend-mode: normal"><g><g><path d="M214.72715,214.82232c0.8,-1.8 1.6,-3.6 2.2,-5.4c1,-3.2 1.7,-6.2 5.7,-6c7.3,0.3 5.3,12.2 1.5,17.7c-0.8,1.1 -9.4,-6.3 -9.4,-6.3z" fill="#f0b484"/><path d="M225.72715,195.52232c8.9,1.6 5.9,9.6 5.9,9.6l-3.1,9.2l-15.7,-4.8c0,0 0.6,-3.3 1.6,-7.1c0,0 2.4,-8.5 11.3,-6.9z" fill="#f01446"/></g><g><path d="M190.92715,225.72232l-1.5,-0.1c0.2,-0.7 3.8,-9.4 3.8,-9.4c0.8,0.5 1.6,1 2.5,1.5l-3.4,5.5v0c-0.6,1 -1.1,1.9 -1.4,2.5z" fill="#000000"/><path d="M192.32715,223.22232l3.4,-5.5c3.3,1.7 7.4,2.6 11,2c3.4,-0.6 6.3,-2.8 7.8,-5.9l11.1,6.3c-3.2,4.5 -12.8,8.5 -17.1,8c-0.2,0 -6.7,0.8 -15.3,-6.3c-0.2,0.4 -0.5,0.9 -0.9,1.4z" fill="#00a08c"/><path d="M192.32715,223.32232c0,0 0,-0.1 0,0z" fill="#000000"/></g><path d="M214.12715,212.82232l12.8,7.5l-1.5,1.8l-12.6,-7.3z" fill="#008264"/></g><g><path d="M251.92715,217.52232c-2.5,0.9 -9.1,0.6 -9.1,0.6c0,0 -8.1,-16.6 -1.6,-18.2c6.5,-1.6 10.6,16.5 10.7,17.6z" fill="#f0b484"/><path d="M241.52715,196.32232c7.7,-0.2 9.2,6.1 9.2,6.1l1.7,10.5l-14.9,-0.3l-2.8,-10.2c0,0 -1,-6 6.8,-6.1z" fill="#f01446"/><g><path d="M262.42715,241.52232c-0.5,0 -8.6,0.8 -10,0.7c-0.1,0 -0.4,-0.7 -0.9,-1.7l5.6,-1c0.9,0.1 4.4,1.1 5.3,1.2c0.1,0.1 0,0.8 0,0.8z" fill="#000000"/><path d="M257.22715,239.52232l-5.6,1c-1.8,-3.7 -6,-12.6 -7.8,-17.4c-0.3,-0.8 -1.6,-3.3 -2.8,-6h11.9z" fill="#00a08c"/></g><path d="M253.52715,215.92232l0.5,2.9l-13.2,0.3l-1.4,-2.7z" fill="#008264"/></g><path d="M214.42715,202.82232c0.7,-2.6 1.6,-6.3 2.3,-8.5c1.9,-5.8 4,-9 4,-9h26.9l2.9,16.6z" fill="#f01446"/><g><path d="M254.22715,135.22232c0.9,-1.5 1.8,-3.6 4,-3c1.7,0.4 2.4,2.6 2.1,4.2c-0.3,1.6 -2.1,3.1 -3.8,3.1c-2.8,-0.1 -2.6,-2.2 -2.3,-4.3z" fill="#be8c64"/><path d="M257.52715,138.62232c-0.2,1.9 -5.4,10.7 -13,10.7c-7.6,0 -12.3,-8.5 -13.1,-11.1c-1.2,-4.1 -1.9,-9.7 -0.1,-13.6c1,-2.2 1.2,-1.9 3.3,-1.6l8.6,1.4l14.1,2.4c0.7,3.9 0.7,7.9 0.2,11.8z" fill="#f0b484"/><path d="M229.52715,124.02232c0,0 -3.9,1.3 -5.6,3.6c-2,2.9 -2.3,6.2 -3.2,9.5c-0.8,3 -2.3,5.8 -5.2,7.1c-3,1.3 -6.6,0.4 -8.2,-2.7c-2.8,-5.4 -0.2,-14.9 4.8,-18.2c2.8,-1.8 6.2,-1.9 9.3,-1.5c2.8,0.3 5.5,1.1 8.1,2.2z" fill="#000000"/><path d="M231.32715,124.22232c3,-5.6 10.3,-7.4 16.7,-6c8,1.7 10.7,7.3 10,14.1c-4.3,0.2 -26.5,-7.4 -26.7,-8.1z" fill="#000000"/><path d="M230.42715,128.12232c-1.2,-0.9 -1.7,-2.5 -1.1,-3.9c1,-2.5 3.5,-1.5 3.5,-1.5z" fill="#f01446"/><path d="M249.62715,132.12232c0.4,0.7 0.7,1.4 0.9,2.1c0.1,0.6 0.4,1.3 -0.2,1.9c-0.3,0.4 -0.9,0.5 -1.4,0.3c-0.4,-0.2 -0.5,-0.5 -0.6,-1c0,-0.9 0.2,-1.9 0.7,-2.7c0.2,-0.2 0.4,-0.4 0.6,-0.6z" fill="#be8c64"/><path d="M241.32715,141.12232c-0.5,-1.1 -0.6,-3.2 1,-2.9c0.7,0.1 1.5,0.7 2.2,0.9c0.9,0.3 1.7,0.7 2.5,1c0.6,0.3 -5.7,1 -5.7,1z" fill="#000000"/><path d="M244.12715,132.32232c0.4,-0.1 0.7,0 0.8,0.2c0.1,0.4 0.1,1.7 -0.3,2l-0.6,-0.2z" fill="#000000"/><path d="M254.52715,134.62232c-0.5,-0.1 -0.8,-1 -0.5,-1.5c0.1,-0.2 0.2,-0.3 0.4,-0.3c0.1,0 0.3,0.2 0.3,0.4c0.1,0.4 0,0.9 -0.2,1.4z" fill="#000000"/><path d="M240.72715,123.82232l-8.1,12.8l-2.3,-0.3c0,0 -5.1,-16.2 10.5,-18.3z" fill="#000000"/><path d="M242.02715,124.22232l-3.8,10.4l-2.7,-12z" fill="#000000"/><path d="M232.62715,131.62232c0,0 2.1,4.4 2.2,6.3c-1.1,0 -4,0.8 -5.4,0.4c-1.1,-0.3 -2.3,-1.1 -2.6,-2.3c-0.2,-1.1 -0.8,-3.3 -0.4,-4.2c1.8,-3.7 6.2,-0.2 6.2,-0.2z" fill="#f0b484"/></g><g><path d="M291.12715,169.52232c-0.2,0.6 -6.8,5.1 -13.7,6.3c-8.4,1.4 -17.6,-0.6 -21.5,-1.5v-12.4c4,1.6 8.7,4.1 10.1,4.6c2.4,0.8 10.5,2.3 10.4,2.2c1.5,0.1 3.1,0.1 4.6,-0.2c1.2,-0.2 3.4,-1 4.4,-1.3c2.7,-0.8 4,-1.6 4.2,-1.2c0.2,0.3 -3.2,1.9 -2.8,2.4c0.4,0.5 3.7,-1.4 3.9,-0.9c0.2,0.5 -3.4,2.1 -2.8,2.7c0.6,0.5 3.8,-2.1 3.2,-0.7z" fill="#f0b484"/><path d="M259.22715,162.22232l-3.5,11.6c0,0 -7.9,-1.6 -10.7,-3c0,0 -8.3,-3.1 -5.5,-9.7c2.7,-6.5 6.8,-4.8 6.8,-4.8c-0.1,-0.1 12.9,5.9 12.9,5.9z" fill="#008264"/><path d="M260.72715,162.32232l-4.2,13.4l-2.7,-1l3.7,-14.2z" fill="#f01446"/><path d="M282.22715,170.42232c-1.7,-0.1 -2.1,-1.8 -2.1,-1.8c0,0 4.4,-4.1 4.8,-3.7c0.5,0.4 -0.4,1.5 -1.1,2.7c1.9,1.3 0,2.9 -1.6,2.8z" fill="#be8c64"/></g><path d="M249.22715,163.62232c1.2,12 1.8,32.4 1.8,32.4l-38.3,3c0,0 8,-26 11.4,-34c4.8,-11.3 12.6,-10.2 15.7,-10.5c4,-0.3 8.5,0.4 9.4,9.1z" fill="#00a08c"/><g><path d="M197.62715,185.82232c-2.2,-0.6 0.9,-9.2 1.4,-10c0.4,0.9 -0.4,9.6 -1.4,10z" fill="#be8c64"/><path d="M223.02715,151.02232c0,0 5.5,0.9 5,6.9c-0.5,5.9 -7.1,4.4 -7.1,4.4c-3.5,-0.6 -7.6,0.6 -10.4,2.5c-2.2,1.5 -5.4,5.2 -7.1,7.2c-3.6,4.3 -9.9,15.4 -10.2,15.1c-0.3,-0.2 1.7,-3.9 1.1,-4.3c-0.6,-0.4 -2.7,4.9 -3.3,4.3c-0.7,-0.6 1.8,-4.9 0.6,-5.3c-1.2,-0.4 -2.3,3.9 -2.8,3.2c-0.5,-0.7 5.6,-16.1 10,-22.8c2.4,-3.6 5.7,-6.2 9.4,-8.4c3,-1.8 11.2,-3.2 14.8,-2.8z" fill="#f0b484"/><path d="M243.12715,153.82232c3.8,1.9 8.5,8 1.6,13.9c-6.9,5.9 -14,-0.8 -14,-0.8c-5,-4.6 -11.5,-4.2 -11.5,-4.2l-1.2,-12.1c4.3,-0.5 8.7,-0.7 13,-0.3c4.3,0.4 8.9,2.1 12.1,3.5z" fill="#00a08c"/><path d="M220.02715,149.32232l1.4,15.5h-3.8l-1.4,-15.4z" fill="#f01446"/></g></g></g></svg>