<svg version="1.1" xmlns="http://www.w3.org/2000/svg" xmlns:xlink="http://www.w3.org/1999/xlink" width="135.52269" height="122.62203" viewBox="0,0,135.52269,122.62203"><g transform="translate(-172.58856,-118.44672)"><g data-paper-data="{&quot;isPaintingLayer&quot;:true}" fill-rule="evenodd" stroke="none" stroke-width="1" stroke-linecap="butt" stroke-linejoin="miter" stroke-miterlimit="10" stroke-dasharray="" stroke-dashoffset="0" style="mix-blend-mode: normal"><g><g><path d="M308.10001,159c-0.3,0.8 -5.3,0.4 -5.1,1.8c0.2,1.3 4.6,0.3 4.2,1.1c-0.3,0.8 -38.7,1.8 -47.2,1.3l-0.5,-8.5c1.8,0.5 47.8,1.8 47.7,2.2c-0.1,0.4 -4.3,0.3 -4.4,1c-0.2,0.8 5.6,0.3 5.3,1.1z" fill="#a0640a"/><path d="M301.90001,153.8c0.1,0.7 -3.1,1.7 -3.6,2.6c-0.5,0.9 1,3.4 -1.9,3.7c-2.9,0.3 -3.1,-2.9 -2.8,-3.9c0.4,-0.9 7.5,-3 8.3,-2.4z" fill="#824600"/><path d="M243.60001,158.9c0,-5.6 4.6,-5 7.4,-5.1h9.5l0.7,10.5c0,0 -9.9,-0.1 -13.5,-0.1c-0.2,0 -4.1,0.1 -4.1,-5.3z" fill="#76002d"/></g><path d="M258.00001,152.8h4.7v12.2h-4.7z" fill="#000000"/></g><g><path d="M262.30001,217.4h-6.4c-0.4,-0.7 -3,-10.4 -3,-11.2c-0.2,-2.2 -0.7,-4.5 2.9,-4.7c3.6,-0.2 5.4,3.2 5.7,4.8c0.1,1.2 0.8,9.9 0.8,11.1z" fill="#a0640a"/><path d="M252.20001,189.8c8.8,-0.2 9.4,7.7 9.4,7.7c0.8,3.8 1.6,8 2.4,11.5h-14.2l-4.2,-11.5c0,0 -2.3,-7.5 6.6,-7.7z" fill="#000000"/><g><path d="M272.60001,239.9l-0.2,0.9c-0.2,0.1 -0.6,0.1 -0.8,0.1c0,0 -7.7,0.3 -8.1,0.1c-0.3,-0.3 -0.7,-1.2 -0.7,-1.2l4,-1.3c0.9,0.2 4.7,1.4 5.8,1.4z" fill="#000000"/><path d="M266.7,238.6l-4,1.3c-0.7,-1.9 -6.4,-16.4 -8.8,-24.3c3.4,-0.4 6.8,-0.4 10.2,-0.1c0.1,0.5 2.7,23 2.6,23.1z" fill="#ad0041"/></g><path d="M253.10001,214.6h11.5l0.4,2.8h-11.3z" fill="#76002d"/></g><g><g><path d="M217.50001,207.3c1.3,-3.6 3,-6.6 5.2,-6.2c5.1,0.9 3.5,6.2 3.3,6.6c-0.9,2.3 -4.6,10.5 -4.9,11h-6.3c0.1,-0.5 1,-6.5 2.7,-11.4z" fill="#a0640a"/><path d="M226.20001,190.4c8.8,-0.3 6.3,7.1 6.3,7.1l-3.5,11.5h-15.6c1.3,-3.8 2.5,-7.6 3.8,-11.5c0,0 1.9,-6.8 9,-7.1z" fill="#000000"/></g><g><path d="M210.70001,235.9l4.5,1.4c-0.2,0.6 -0.4,1.2 -0.4,1.2c-1.5,0 -10.3,0.1 -10.3,0.1l-0.3,-1c0.1,-0.5 6.6,-1.7 6.5,-1.7z" fill="#000000"/><path d="M223.00001,216.4c-2.1,5.6 -6.5,17.6 -7.7,20.9l-4.5,-1.4l3.5,-19.5z" fill="#ad0041"/></g><path d="M213.90001,214.6h10.6l-0.8,2.8h-10.3z" fill="#76002d"/></g><g><path d="M251.10001,134.6c0.9,-1.5 1.9,-3.6 4.1,-3c1.7,0.4 2.4,2.6 2.1,4.2c-0.3,1.6 -2.1,3.1 -3.8,3.1c-2.9,-0.1 -2.7,-2.2 -2.4,-4.3z" fill="#824600"/><path d="M252.70001,139.2c-0.3,2 -5.3,10.8 -13,10.8c-7.7,0 -12.4,-8.5 -13.2,-11.1c-1.2,-4.1 -1.9,-9.7 -0.1,-13.6c1.1,-2.2 1.2,-1.9 3.3,-1.6l8.6,1.4l14.2,2.3c0.6,3.9 0.7,7.9 0.2,11.8z" fill="#a0640a"/><path d="M224.60001,124.6c0,0 -3.9,1.3 -5.6,3.6c-2,2.9 -2.4,6.2 -3.2,9.5c-0.8,3 -2.3,5.8 -5.3,7.1c-3,1.3 -6.7,0.4 -8.2,-2.7c-2.8,-5.3 -0.3,-14.8 4.8,-18.1c2.8,-1.8 6.2,-1.9 9.4,-1.5c2.7,0.3 5.5,1 8.1,2.1z" fill="#1c0800"/><path d="M226.40001,124.9c3,-5.6 10.4,-7.4 16.8,-6c8,1.7 10.7,7.3 10.1,14.1c-4.4,0.2 -26.7,-7.4 -26.9,-8.1z" fill="#1c0800"/><path d="M227.70001,132.3c0,0 2.1,4.4 2.2,6.3c-1.1,0 -4,0.8 -5.4,0.4c-1.1,-0.3 -2.3,-1.1 -2.6,-2.3c-0.2,-1.1 -0.8,-3.3 -0.4,-4.2c1.7,-3.7 6.2,-0.2 6.2,-0.2z" fill="#824600"/><path d="M225.50001,128.8c-1.3,-0.9 -1.7,-2.5 -1.1,-3.9c1,-2.5 3.5,-1.5 3.5,-1.5z" fill="#000000"/><path d="M239.50001,132c0.4,0.7 0.7,1.4 0.9,2.1c0.1,0.6 0.4,1.3 -0.2,1.9c-0.3,0.4 -0.9,0.5 -1.4,0.3c-0.4,-0.2 -0.5,-0.5 -0.6,-1c0,-0.9 0.2,-1.9 0.7,-2.7c0.2,-0.2 0.4,-0.4 0.6,-0.6z" fill="#824600"/><path d="M243.40001,140.1c-0.6,2.5 -5.6,3.6 -7.2,1.6c-0.7,-0.9 -1.2,-2.9 0.4,-3c0.6,0 1.6,0.3 2.3,0.4c0.9,0.1 1.7,0.3 2.6,0.4c0.6,0.1 1.2,0.3 1.9,0.6z" fill="#000000"/><path d="M232.80001,132.5c0.4,-0.1 0.7,0 0.8,0.2c0.1,0.4 0.1,1.7 -0.3,2l-0.5,-0.2z" fill="#000000"/><path d="M246.30001,134.6c-0.5,-0.1 -0.8,-1 -0.5,-1.5c0.1,-0.2 0.2,-0.3 0.4,-0.3c0.1,0 0.3,0.2 0.3,0.4c0.1,0.4 0.1,1 -0.2,1.4z" fill="#000000"/><path d="M235.70001,124.4l-10.4,12.6c0,0 -5.1,-16.2 10.6,-18.3z" fill="#1c0800"/><path d="M230.60001,123.3l4.2,1.5l-6.2,13.9l2,-15.4" fill="#1c0800"/></g><path d="M217.40001,197c0.1,-0.4 3.4,-11.1 3.4,-11.1c0,0 7.4,-0.1 9.3,-0.1l28.6,0.6c0.5,1.3 1.5,5.6 2.6,10.6h-15.9z" fill="#000000"/><g><path d="M177.90001,157.9c-0.1,-0.7 -4.3,-0.6 -4.4,-1c-0.1,-0.4 45.9,-1.7 47.7,-2.2l-0.5,8.5c-8.5,0.5 -46.9,-0.5 -47.2,-1.3c-0.4,-0.8 4,0.2 4.2,-1.1c0.2,-1.4 -4.8,-1 -5.1,-1.8c-0.3,-0.8 5.4,-0.3 5.3,-1.1z" fill="#a0640a"/><path d="M187.00001,156.2c0.3,1 0.1,4.2 -2.8,3.9c-2.9,-0.3 -1.4,-2.8 -1.9,-3.7c-0.5,-0.9 -3.7,-1.9 -3.6,-2.6c0.9,-0.6 7.9,1.5 8.3,2.4z" fill="#824600"/><path d="M231.70001,164.2c-3.6,0 -13.5,0.1 -13.5,0.1l0.7,-10.5h9.5c2.8,0.1 7.4,-0.5 7.4,5.1c-0.1,5.4 -3.9,5.3 -4.1,5.3z" fill="#ad0041"/><path d="M217.50001,152.8h4.7v12.2h-4.7z" fill="#000000"/></g><g><path d="M261.7,192.6l-21.3,0.9l-3.8,-11.4l-3.8,-10.3l7.6,-18.1h10.6c3.1,11.4 9.7,34.9 10.7,38.9z" fill="#76002d"/><path d="M240.30001,153.7v39.8l-22.9,0.7c1.6,-6.1 7.9,-29.1 11,-40.5z" fill="#ad0041"/><path d="M249.70001,159.7c1.1,1 1.8,2.4 1.8,2.8c0.1,1 -0.1,2.1 -0.6,3c-0.7,0.9 -1.7,1.6 -2.8,1.7c-1.1,0.2 -2.3,-0.2 -3.2,-0.9c-4.4,-3.4 0.7,-9.6 4.8,-6.6z" fill="#ad0041"/></g></g></g></svg>