<svg width="117" height="189" xmlns="http://www.w3.org/2000/svg" xmlns:xlink="http://www.w3.org/1999/xlink" xml:space="preserve" overflow="hidden"><defs><clipPath id="clip0"><rect x="537" y="494" width="117" height="189"/></clipPath></defs><g clip-path="url(#clip0)" transform="translate(-537 -494)"><path d="M24.3901 139.068 41.0075 139.068C38.9974 143.481 34.039 153.51 34.039 153.51 34.039 153.51 24.9262 153.911 21.5759 152.708 21.8439 151.103 23.452 143.08 24.3901 139.068Z" fill="#A0640A" fill-rule="evenodd" transform="matrix(1 0 0 1.00108 537.009 494.469)"/><path d="M6.03049 183.998C6.03049 184.132 5.89654 185.469 5.89654 185.469 6.56654 185.469 20.9058 187.341 21.0399 186.806 21.0399 186.806 21.4418 185.335 22.112 183.998L14.6073 182.126C14.6073 182.126 7.37061 183.864 6.03049 183.998Z" fill-rule="evenodd" transform="matrix(1 0 0 1.00108 537.009 494.469)"/><path d="M36.5852 152.173 20.3697 152.173 14.6073 182.126 22.112 183.998C24.5241 179.05 30.2866 166.882 32.8328 160.196 33.2349 159.26 34.977 155.783 36.5852 152.173Z" fill="#F01446" fill-rule="evenodd" transform="matrix(1 0 0 1.00108 537.009 494.469)"/><path d="M19.7051 6.69524 4.56175 4.55573 5.23181 1.88134 21.1792 3.48597Z" fill="#F5CFCF" fill-rule="evenodd" transform="matrix(1 0 0 1.00108 551.343 646.663)"/><path d="M18.0969 11.9103 2.95361 9.63706 3.62367 6.96268 19.571 8.56731Z" fill="#F5CFCF" fill-rule="evenodd" transform="matrix(1 0 0 1.00108 551.343 646.663)"/><path d="M87.7776 139.068 71.1601 139.068C73.1703 143.481 78.1287 153.51 78.1287 153.51 78.1287 153.51 87.2415 153.911 90.5918 152.708 90.3238 151.103 88.8497 143.08 87.7776 139.068Z" fill="#A0640A" fill-rule="evenodd" transform="matrix(1 0 0 1.00108 537.009 494.469)"/><path d="M106.271 183.998C104.931 183.864 97.5604 181.19 97.5604 181.19L90.1898 184.132C90.8598 185.469 91.2619 186.94 91.2619 186.94 91.2619 187.608 105.601 185.469 106.271 185.469 106.405 185.469 106.405 184.132 106.271 183.998Z" fill-rule="evenodd" transform="matrix(1 0 0 1.00108 537.009 494.469)"/><path d="M92.066 152.173 75.8506 152.173C77.5927 155.917 79.2008 159.26 79.6029 160.33 82.1491 166.882 87.9115 179.184 90.3238 184.132L97.6944 181.19 92.066 152.173Z" fill="#F01446" fill-rule="evenodd" transform="matrix(1 0 0 1.00108 537.009 494.469)"/><path d="M3.4843 6.82896 18.6276 4.68945 17.9575 2.01506 2.01017 3.61969Z" fill="#F5CFCF" fill-rule="evenodd" transform="matrix(1 0 0 1.00108 612.055 646.663)"/><path d="M5.09244 12.044 20.2357 9.77078 19.5657 7.0964 3.61831 8.70103Z" fill="#F5CFCF" fill-rule="evenodd" transform="matrix(1 0 0 1.00108 612.055 646.663)"/><path d="M68.6139 44.796C68.6139 44.796 76.3866 46.9356 78.5308 39.581 80.675 32.2264 69.954 34.3658 68.48 37.9763 67.9439 39.7147 68.6139 44.796 68.6139 44.796Z" fill="#A0640A" fill-rule="evenodd" transform="matrix(1 0 0 1.00108 537.009 494.469)"/><path d="M71.4281 18.9881C70.7581 18.0521 58.8311 15.5115 58.8311 15.5115L32.4308 29.8194C33.1008 32.7613 33.9049 35.7031 34.977 38.5112 38.0592 45.732 43.2858 53.6215 48.7802 55.3599 51.7285 56.2959 63.2534 57.4993 68.8819 51.4819 72.2322 47.8716 75.7165 40.7844 75.4485 32.895 75.4485 27.2788 72.2322 20.0579 71.4281 18.9881Z" fill="#A0640A" fill-rule="evenodd" transform="matrix(1 0 0 1.00108 537.009 494.469)"/><path d="M30.1526 13.1045 30.9566 12.5696C29.7506 9.36033 26.9363 4.14531 32.2968 3.20927 35.5131 2.5406 40.2034 6.15105 41.2755 9.09296 41.8116 9.36033 41.8116 9.36033 42.3476 8.95915 41.8116 6.55223 40.8736 3.47677 42.8837 1.60457 49.0482-1.87207 51.9965 6.68591 55.3468 10.1627L56.1508 10.029C56.821 7.35458 54.9448 3.61045 58.965 3.47677 61.6453 3.47677 62.8514 5.74988 64.1916 7.48826 67.4079 11.6336 71.9641 19.2556 71.9641 19.2556 71.9641 19.2556 71.9641 23.9358 64.9956 25.1392 61.5113 25.8079 55.4808 22.1974 46.1 25.8079 36.7191 29.4183 36.9871 41.9879 36.9871 41.9879 36.9871 41.9879 26.9363 23.2671 25.7302 20.5928 24.7921 18.587 22.2459 12.5696 24.3901 10.965 25.9983 9.49414 28.9465 12.1684 30.1526 13.1045Z" fill-rule="evenodd" transform="matrix(1 0 0 1.00108 537.009 494.469)"/><path d="M38.4613 44.1273C38.4613 44.1273 30.6886 46.2669 28.5444 38.9123 26.4002 31.5577 37.1212 33.6973 38.5953 37.3078 39.2654 39.046 38.4613 44.1273 38.4613 44.1273Z" fill="#A0640A" fill-rule="evenodd" transform="matrix(1 0 0 1.00108 537.009 494.469)"/><path d="M50.9244 44.6623C54.9448 43.9937 58.8311 44.2612 62.8514 44.796 62.8514 51.4819 48.9142 51.3482 50.9244 44.6623Z" fill-rule="evenodd" transform="matrix(1 0 0 1.00108 537.009 494.469)"/><path d="M55.6148 38.9123C52.8006 35.1682 61.1092 30.6217 62.8514 36.3717 64.1916 40.7844 58.295 39.3135 55.6148 38.9123Z" fill="#824600" fill-rule="evenodd" transform="matrix(1 0 0 1.00108 537.009 494.469)"/><path d="M47.574 35.8369 47.1721 37.3078 46.234 37.3078C45.8319 35.5694 46.77 33.1624 47.574 35.8369Z" fill-rule="evenodd" transform="matrix(1 0 0 1.00108 537.009 494.469)"/><path d="M68.48 36.7729 67.6759 36.7729 67.1398 34.9007C67.5418 34.2322 67.5418 34.2322 68.2119 34.3658 68.6139 35.0345 68.748 35.9705 68.48 36.7729Z" fill-rule="evenodd" transform="matrix(1 0 0 1.00108 537.009 494.469)"/><path d="M23.452 118.877 21.4418 130.911C21.4418 130.911 21.9779 133.853 23.05 135.19L28.1424 117.941 23.452 118.877Z" fill="#A0640A" fill-rule="evenodd" transform="matrix(1 0 0 1.00108 537.009 494.469)"/><path d="M84.1593 116.47 89.3857 136.26C89.3857 136.26 90.0558 122.621 94.7462 118.877L94.7462 116.068 84.1593 116.47Z" fill="#A0640A" fill-rule="evenodd" transform="matrix(1 0 0 1.00108 537.009 494.469)"/><path d="M42.4817 144.016 49.3162 123.824 61.9133 123.69 61.9133 123.557 68.7479 144.684 91.5299 144.684C88.9837 132.917 82.6851 104.569 81.211 101.359 67.8098 101.092 34.441 97.6152 34.441 97.6152 34.441 97.6152 28.5445 112.324 28.2764 113.394 27.3384 116.336 26.4003 119.144 25.4622 121.952 22.916 129.307 20.9058 136.795 19.2977 144.551L42.4817 144.016Z" fill-rule="evenodd" transform="matrix(1 0 0 1.00108 537.009 494.469)"/><path d="M116.188 90.2606C115.786 86.9176 111.632 77.2898 106.673 73.8131 97.4264 67.2609 84.2933 65.3888 83.0872 65.3888 83.0872 65.3888 77.4587 65.5225 76.5206 71.8073 75.5825 78.0921 83.2212 79.9642 83.2212 79.9642 91.5299 79.9642 99.5706 83.4409 102.251 92.1327 104.931 100.958 100.643 105.772 98.6325 108.446 96.6223 111.255 90.8598 113.528 88.5816 114.33 86.3034 115.132 82.4171 114.063 80.5409 115.534 81.747 118.208 86.0354 116.336 87.7776 119.01 89.5197 121.685 89.2517 122.353 90.7258 125.295 90.9938 125.161 92.0659 123.156 92.87 122.353 94.3441 120.749 96.4883 120.882 98.4985 120.347 102.385 119.144 105.869 116.871 108.549 113.661 113.24 108.313 117.126 97.3477 116.188 90.2606Z" fill="#A0640A" fill-rule="evenodd" transform="matrix(1 0 0 1.00108 537.009 494.469)"/><path d="M30.9567 116.871C29.8846 115.801 26.9363 117.004 25.7302 117.004 24.1221 116.737 22.648 116.202 21.3078 115.4 18.6276 113.795 16.2154 110.586 14.6073 107.644 11.123 101.493 10.7209 93.7373 16.0814 86.249 21.4418 78.7607 33.1009 79.4293 33.5029 79.2956 33.5029 79.2956 39.5334 78.7607 39.1314 71.4062 38.7293 64.0516 30.2866 65.1214 30.2866 65.1214 24.5241 64.9876 15.8134 67.9295 8.44273 74.348 2.01017 80.0979-0.402035 91.1966 1.07209 98.9524 2.54622 106.842 6.70058 113.795 13.1331 118.743 15.0093 120.214 19.0296 121.15 20.5038 123.156 22.3799 125.563 20.2357 128.237 21.4418 130.911 22.782 127.167 23.184 124.894 24.6581 121.417 25.4622 119.545 25.9982 119.144 27.8744 118.743 28.6785 118.475 32.8328 118.877 30.9567 116.871Z" fill="#A0640A" fill-rule="evenodd" transform="matrix(1 0 0 1.00108 537.009 494.469)"/><path d="M84.8293 81.8363C84.8293 81.8363 89.2517 64.8539 89.2517 64.319 78.3968 62.3132 67.2738 61.1098 56.2849 60.7086 38.4613 60.3075 22.3799 64.4528 22.3799 64.4528 22.2459 66.0574 29.6166 81.1677 29.6166 81.1677 32.0288 81.4351 34.441 81.7026 36.8532 81.5688 34.1729 91.7315 30.0186 102.429 27.3384 112.592L57.491 111.388 84.9633 110.319C83.4892 103.9 79.4688 92.4001 76.7886 81.8363 82.8191 82.2374 84.8293 81.8363 84.8293 81.8363Z" fill="#F01446" fill-rule="evenodd" transform="matrix(1 0 0 1.00108 537.009 494.469)"/></g></svg>