<svg width="149" height="189" xmlns="http://www.w3.org/2000/svg" xmlns:xlink="http://www.w3.org/1999/xlink" xml:space="preserve" overflow="hidden"><defs><clipPath id="clip0"><rect x="850" y="482" width="149" height="189"/></clipPath></defs><g clip-path="url(#clip0)" transform="translate(-850 -482)"><path d="M142.74 85.8635C141.912 85.0391 147.019 82.8412 146.605 82.0168 146.329 81.3299 141.635 83.9402 141.083 83.2532 140.531 82.5663 145.225 80.3682 145.087 79.956 144.81 79.4065 143.016 80.5056 139.151 81.6046 137.77 82.0168 134.733 83.1159 133.077 83.3907 131.006 83.8027 128.797 83.8027 126.588 83.6654 126.727 83.8027 115.407 81.7421 112.094 80.6431 110.161 79.956 103.673 76.5215 98.0129 74.1861L98.0129 91.3588C103.397 92.5952 116.373 95.3428 128.107 93.4195 137.77 91.771 147.019 85.4513 147.295 84.7644 147.986 83.1159 143.568 86.6877 142.74 85.8635Z" fill="#A0640A" fill-rule="evenodd" transform="matrix(1.00534 0 0 1 850.095 482.008)"/><path d="M84.6223 66.63C84.6223 66.63 73.4407 61.1349 69.4372 71.1637 65.434 81.1926 83.1039 88.8858 83.1039 88.8858 86.9691 90.8093 102.016 95.6175 102.016 95.6175 102.016 95.6175 106.986 75.972 106.986 75.5599 105.882 75.0104 84.4843 66.4927 84.6223 66.63Z" fill="#BE0A3C" fill-rule="evenodd" transform="matrix(1.00534 0 0 1 850.095 482.008)"/><path d="M134.733 86.2757C132.386 86.1382 131.834 83.8027 131.834 83.8027 131.834 83.8027 137.908 78.1701 138.598 78.7196 139.289 79.2692 138.046 80.7804 137.08 82.5663 139.565 84.2149 137.08 86.413 134.733 86.2757Z" fill="#824600" fill-rule="evenodd" transform="matrix(1.00534 0 0 1 850.095 482.008)"/><path d="M12.9763 106.608C9.93938 105.784 14.2187 93.8316 14.909 92.7325 15.4611 93.9691 14.3568 105.921 12.9763 106.608Z" fill="#824600" fill-rule="evenodd" transform="matrix(1.00534 0 0 1 850.095 482.008)"/><path d="M27.1952 63.4703C22.0874 66.3553 17.8079 70.4767 14.6329 75.2851 8.55881 84.4897 0 105.921 0.690286 106.883 1.38044 107.844 2.89904 101.8 4.69356 102.487 6.48823 103.174 2.89904 108.944 3.86525 109.768 4.83159 110.592 7.5926 103.311 8.42078 103.86 9.2491 104.41 6.35006 109.493 6.90232 109.905 7.45444 110.317 16.1514 94.9306 21.2591 89.0233 23.6059 86.2757 28.0234 81.0551 31.0604 78.9945 34.9257 76.3842 40.5856 74.7356 45.5552 75.5599L48.8683 58.3872C43.8987 57.7002 31.3365 60.9974 27.1952 63.4703Z" fill="#A0640A" fill-rule="evenodd" transform="matrix(1.00534 0 0 1 850.095 482.008)"/><path d="M55.7706 56.876C45.4172 56.0518 41.69 57.4255 41.69 57.4255L42.7943 76.7963C42.7943 76.7963 51.6293 77.2084 59.3598 80.5056 59.3598 80.5056 71.784 86.413 79.2386 78.1701 86.693 69.9272 82.4136 65.2563 82.4136 65.2563 82.1375 65.2563 66.1241 57.7002 55.7706 56.876Z" fill="#F01446" fill-rule="evenodd" transform="matrix(1.00534 0 0 1 850.095 482.008)"/><path d="M47.2118 135.321C45.9694 142.327 43.7607 152.219 43.6227 153.455L60.0501 153.867C61.1545 152.219 67.2285 139.854 69.7133 135.321L47.2118 135.321Z" fill="#824600" fill-rule="evenodd" transform="matrix(1.00534 0 0 1 850.095 482.008)"/><path d="M33.4072 185.877C33.4072 186.152 33.2692 186.427 33.2692 186.702L33.9593 188.213C36.8584 188.35 50.9391 188.488 51.7674 187.526L50.9391 186.015C47.902 185.465 46.9358 185.19 42.2422 184.503 42.2422 184.503 42.2422 184.503 42.2422 184.366L33.4072 185.877Z" fill-rule="evenodd" transform="matrix(1.00534 0 0 1 850.095 482.008)"/><path d="M44.589 180.794C46.7976 177.222 49.0064 173.65 51.2151 170.078 54.6663 164.583 61.8446 152.219 62.1208 151.669 55.7706 151.807 49.4206 151.669 43.2084 151.944 40.1715 163.209 36.03 174.475 33.4072 185.877L42.2422 184.366C43.3465 182.443 43.6227 182.443 44.589 180.794Z" fill="#F01446" fill-rule="evenodd" transform="matrix(1.00534 0 0 1 850.095 482.008)"/><path d="M26.781 41.2323 8.28277 40.9575 8.97301 38.2099 28.7136 37.9351Z" fill="#F5CFCF" fill-rule="evenodd" transform="matrix(1.00534 0 0 1 883.403 597.666)"/><path d="M23.4679 47.4144 6.62622 46.3154 7.59254 43.4304 25.4005 44.1173Z" fill="#F5CFCF" fill-rule="evenodd" transform="matrix(1.00534 0 0 1 883.403 597.666)"/><path d="M67.6426 143.426C67.6426 143.426 80.3428 119.385 80.7571 115.813L49.6966 116.637C48.1782 119.659 48.0402 123.781 47.2118 126.941 45.8314 132.436 44.0367 137.794 41.966 143.014L67.6426 143.426Z" fill-rule="evenodd" transform="matrix(1.00534 0 0 1 850.095 482.008)"/><path d="M104.225 113.615C102.292 113.065 87.3833 112.378 87.3833 112.378L87.6594 129.826C90.9725 130.787 100.636 129.413 103.811 128.314 104.363 125.567 104.087 115.95 104.225 113.615Z" fill="#A0640A" fill-rule="evenodd" transform="matrix(1.00534 0 0 1 850.095 482.008)"/><path d="M44.1748 107.158C52.4575 107.158 94.9758 110.455 94.9758 110.455L93.3193 131.062C93.3193 131.062 67.9188 131.474 62.2589 131.062 50.525 130.1 39.8954 119.659 44.1748 107.158Z" fill-rule="evenodd" transform="matrix(1.00534 0 0 1 850.095 482.008)"/><path d="M135.837 104.547 134.871 104.685C134.595 107.707 133.353 114.714 133.353 114.714L135.561 123.369 137.632 122.957 137.77 121.995C137.77 121.858 136.942 105.509 135.837 104.547Z" fill-rule="evenodd" transform="matrix(1.00534 0 0 1 850.095 482.008)"/><path d="M60.0296 7.83075 58.9252 25.9651 93.2987 18.9587 91.228 10.3036Z" fill="#F01446" fill-rule="evenodd" transform="matrix(1.00534 0 0 1 892.445 586.418)"/><path d="M63.8948 25.2782 64.9992 7.69337 62.1003 7.55599 60.1676 26.2399Z" fill="#F5CFCF" fill-rule="evenodd" transform="matrix(1.00534 0 0 1 892.445 586.418)"/><path d="M69.6928 24.0418 70.383 8.10551 67.4841 7.83075 66.1036 25.0034Z" fill="#F5CFCF" fill-rule="evenodd" transform="matrix(1.00534 0 0 1 892.445 586.418)"/><path d="M95.528 89.0233C95.8041 77.3458 88.6257 63.0582 75.3732 64.1572 70.9558 64.5694 65.572 65.8058 61.9828 68.416 61.5686 68.6908 54.8044 76.6589 53.4239 78.857 42.6563 96.0297 40.8617 115.126 40.8617 115.126L93.0432 110.317C93.0432 110.455 95.3899 95.2055 95.528 89.0233Z" fill="#F01446" fill-rule="evenodd" transform="matrix(1.00534 0 0 1 850.095 482.008)"/><path d="M94.2856 45.8854C94.2856 45.8854 102.292 48.0835 104.501 40.5276 106.71 32.9716 95.6661 35.1697 94.2856 38.879 93.4573 40.665 94.2856 45.8854 94.2856 45.8854Z" fill="#824600" fill-rule="evenodd" transform="matrix(1.00534 0 0 1 850.095 482.008)"/><path d="M97.4606 19.5082C96.7705 18.5465 84.4843 15.9363 84.4843 15.9363L57.5653 30.6361C58.2555 33.6584 59.0838 36.6809 60.0501 39.5659 63.2252 46.9845 68.6089 55.09 74.2688 56.876 77.3059 57.8377 89.0398 59.0741 94.9758 52.8919 98.427 49.1826 101.878 41.9014 101.74 33.7959 101.74 28.0258 98.427 20.6072 97.4606 19.5082Z" fill="#A0640A" fill-rule="evenodd" transform="matrix(1.00534 0 0 1 850.095 482.008)"/><path d="M54.8043 13.326 55.6326 12.7765C54.3902 9.47933 51.6293 4.25888 57.0131 3.15982 60.3262 2.47281 65.1578 6.18216 66.1241 9.20463 66.6764 9.47933 66.6764 9.47933 67.2285 9.06715 66.8144 6.59434 65.71 3.43452 67.7808 1.51124 73.9928-2.06077 77.0299 6.73169 80.619 10.3036L81.4472 10.1662C82.1375 7.41856 80.2048 3.57187 84.3463 3.43452 87.1071 3.43452 88.3495 5.76998 89.7301 7.55605 93.0431 11.8148 97.7368 19.5082 97.7368 19.5082 97.7368 19.5082 97.7368 24.3166 90.5583 25.553 86.9691 26.2399 80.7571 22.5305 71.2319 26.2399 61.7066 29.9492 61.8446 42.8631 61.8446 42.8631 61.8446 42.8631 51.4913 23.6296 50.2488 20.8819 49.2826 18.8213 46.6596 12.7765 48.8683 10.9906 50.525 9.61668 53.4239 12.5017 54.8043 13.326Z" fill-rule="evenodd" transform="matrix(1.00534 0 0 1 850.095 482.008)"/><path d="M63.3633 45.1985C63.3633 45.1985 55.3566 47.3966 53.1478 39.8406 50.9391 32.2847 61.9828 34.4828 63.3633 38.192 64.0534 39.9781 63.3633 45.1985 63.3633 45.1985Z" fill="#A0640A" fill-rule="evenodd" transform="matrix(1.00534 0 0 1 850.095 482.008)"/><path d="M78.2723 43.2753C82.4136 43.6873 86.1408 45.1985 90.0062 46.8471 88.0735 53.3041 74.4069 49.1826 78.2723 43.2753Z" fill-rule="evenodd" transform="matrix(1.00534 0 0 1 850.095 482.008)"/><path d="M85.7267 41.2145C83.3799 37.0931 92.353 33.3837 93.4573 39.4286 94.2856 44.0995 88.4877 41.9014 85.7267 41.2145Z" fill="#824600" fill-rule="evenodd" transform="matrix(1.00534 0 0 1 850.095 482.008)"/><path d="M77.9961 37.0931 77.4439 38.4668 76.4776 38.4668C76.2015 36.8183 77.4439 34.3455 77.9961 37.0931Z" fill-rule="evenodd" transform="matrix(1.00534 0 0 1 850.095 482.008)"/><path d="M98.703 40.5276 97.8748 40.3901 97.5986 38.4668C98.1509 37.9173 98.1509 37.9173 98.703 38.0547 98.9792 38.879 98.9792 39.7033 98.703 40.5276Z" fill-rule="evenodd" transform="matrix(1.00534 0 0 1 850.095 482.008)"/></g></svg>