<svg width="148" height="189" xmlns="http://www.w3.org/2000/svg" xmlns:xlink="http://www.w3.org/1999/xlink" xml:space="preserve" overflow="hidden"><defs><clipPath id="clip0"><rect x="672" y="494" width="148" height="189"/></clipPath></defs><g clip-path="url(#clip0)" transform="translate(-672 -494)"><path d="M89.1003 137.485 71.948 137.485C74.056 141.984 79.1347 152.321 79.1347 152.321 79.1347 152.321 88.3338 152.704 91.975 151.46 91.6875 149.928 90.0585 141.601 89.1003 137.485Z" fill="#A0640A" fill-rule="evenodd" transform="matrix(1.00059 0 0 1 672.146 494.788)"/><path d="M90.346 132.508C90.346 132.508 89.1962 122.171 78.464 120.831 67.7318 119.491 66.2944 125.425 66.2944 125.425L71.6605 144.568 92.4542 144.951 90.346 132.508Z" fill-rule="evenodd" transform="matrix(1.00059 0 0 1 672.146 494.788)"/><path d="M105.654 183.462C104.504 183.462 100.383 183.079 99.3292 182.888L92.0467 184.802C92.3342 185.472 92.7175 186.429 93.1965 187.004 93.1965 187.004 105.175 184.706 105.845 184.515 105.941 184.419 105.654 183.654 105.654 183.462Z" fill-rule="evenodd" transform="matrix(1.00059 0 0 1 672.146 494.788)"/><path d="M99.3292 182.888 93.1965 150.823 76.5233 150.823C78.344 154.556 79.973 158.098 80.3562 159.055 83.5184 167.478 91.2801 183.654 91.9508 184.802L99.3292 182.888Z" fill="#F01446" fill-rule="evenodd" transform="matrix(1.00059 0 0 1 672.146 494.788)"/><path d="M2.58723 5.64719 18.5897 5.55148 17.9189 2.48859 1.14988 2.29716Z" fill="#F5CFCF" fill-rule="evenodd" transform="matrix(1.00059 0 0 1 748.043 645.228)"/><path d="M4.98281 10.9115 19.7396 10.0501 19.0688 7.27435 3.44964 7.56149Z" fill="#F5CFCF" fill-rule="evenodd" transform="matrix(1.00059 0 0 1 748.043 645.228)"/><path d="M39.0198 147.522C40.553 145.225 40.6488 142.545 40.8403 140.056 42.7568 138.525 55.5013 141.396 57.897 142.354 56.9387 147.139 55.693 152.117 52.6266 156.232 50.5186 156.137 47.8354 153.169 46.0149 152.117 43.811 150.681 41.2237 149.341 39.0198 147.522Z" fill="#A0640A" fill-rule="evenodd" transform="matrix(1.00059 0 0 1 672.146 494.788)"/><path d="M55.1181 117.276C43.4277 114.5 40.7445 124.263 40.7445 124.263L37.1033 140.439 61.3465 146.661 64.2212 130.581C64.2212 130.485 67.0001 120.052 55.1181 117.276Z" fill-rule="evenodd" transform="matrix(1.00059 0 0 1 672.146 494.788)"/><path d="M10.6534 150.487 9.21602 150.487C8.25778 150.869 5.67056 161.877 5.38308 163.025L6.53302 162.93C7.20377 161.781 8.73697 158.909 9.59928 157.665L11.7075 151.061C11.1325 150.678 11.1325 150.678 10.6534 150.487Z" fill-rule="evenodd" transform="matrix(1.00059 0 0 1 672.146 494.788)"/><path d="M31.3512 166.662C34.5134 166.758 37.5798 166.567 40.7418 165.705 43.8082 165.322 46.3954 164.557 47.7369 163.599 49.9409 162.068 53.678 157.665 55.2112 155.464L38.7296 146.179C38.4421 146.754 37.4838 148.285 37.1006 148.764 34.9925 151.539 32.0219 153.549 28.6682 154.698 23.1105 156.229 16.2111 154.124 11.6117 150.965L9.5035 157.569C13.6239 160.441 17.4569 162.547 22.1522 164.461 24.8352 165.61 30.8721 166.662 31.3512 166.662Z" fill="#F01446" fill-rule="evenodd" transform="matrix(1.00059 0 0 1 672.146 494.788)"/><path d="M46.4743 44.9861 30.8551 33.3089 32.3882 31.4903 48.8698 42.4018Z" fill="#F5CFCF" fill-rule="evenodd" transform="matrix(1.00059 0 0 1 677.244 610.82)"/><path d="M39.575 49.389 28.172 35.8932 30.0885 34.3617 43.9828 47.6661Z" fill="#F5CFCF" fill-rule="evenodd" transform="matrix(1.00059 0 0 1 677.244 610.82)"/><path d="M90.3613 132.565 88.0615 118.4 44.1745 109.881 40.8207 124.238C40.8207 124.143 88.8281 132.278 90.3613 132.565Z" fill-rule="evenodd" transform="matrix(1.00059 0 0 1 672.146 494.788)"/><path d="M94.0358 45.6561C94.0358 45.6561 101.989 47.8576 104.289 40.2961 106.589 32.7346 95.473 34.936 94.0358 38.6689 93.2691 40.4875 94.0358 45.6561 94.0358 45.6561Z" fill="#824600" fill-rule="evenodd" transform="matrix(1.00059 0 0 1 672.146 494.788)"/><path d="M97.1978 19.2387C96.5271 18.2816 84.2617 15.6972 84.2617 15.6972L57.3354 30.4373C58.0061 33.5003 58.8686 36.4674 59.8268 39.339 62.989 46.8047 68.355 54.8448 74.0086 56.6634 77.075 57.6206 88.7654 58.8648 94.7065 52.6433 98.156 48.9104 101.606 41.6361 101.51 33.5003 101.51 27.8531 98.156 20.3873 97.1978 19.2387Z" fill="#A0640A" fill-rule="evenodd" transform="matrix(1.00059 0 0 1 672.146 494.788)"/><path d="M54.6524 13.113 55.5147 12.5386C54.1732 9.18869 51.3944 4.01999 56.8563 2.87142 60.2101 2.20149 65.0013 5.93427 65.9595 8.90148 66.5345 9.18869 66.5345 9.18869 67.1094 8.80583 66.726 6.31727 65.5762 3.15863 67.6843 1.24435 73.9128-2.29714 76.8833 6.50869 80.5246 10.05L81.387 9.9544C82.0578 7.17862 80.1413 3.35006 84.2617 3.25428 87.0406 3.15863 88.2864 5.55142 89.6279 7.37005 92.9816 11.6773 97.5812 19.3345 97.5812 19.3345 97.5812 19.3345 97.5812 24.1202 90.3944 25.3646 86.8489 26.0345 80.6205 22.3016 71.1339 26.0345 61.6475 29.7674 61.7433 42.6889 61.7433 42.6889 61.7433 42.6889 51.2985 23.4502 50.0528 20.6745 49.0946 18.5687 46.5073 12.5386 48.7113 10.7201 50.3403 9.38012 53.215 12.2515 54.6524 13.113Z" fill-rule="evenodd" transform="matrix(1.00059 0 0 1 672.146 494.788)"/><path d="M63.1806 44.9862C63.1806 44.9862 55.2274 47.1875 52.9275 39.626 50.6278 32.0646 61.7433 34.266 63.1806 37.999 63.8513 39.8175 63.1806 44.9862 63.1806 44.9862Z" fill="#A0640A" fill-rule="evenodd" transform="matrix(1.00059 0 0 1 672.146 494.788)"/><path d="M78.0333 43.0717C82.1536 43.4546 85.8907 44.9862 89.7236 46.6132 87.8072 53.1219 74.2003 49.0062 78.0333 43.0717Z" fill-rule="evenodd" transform="matrix(1.00059 0 0 1 672.146 494.788)"/><path d="M85.5074 41.0618C83.2077 36.946 92.1193 33.2131 93.2691 39.2432 94.0358 43.9332 88.2864 41.7317 85.5074 41.0618Z" fill="#824600" fill-rule="evenodd" transform="matrix(1.00059 0 0 1 672.146 494.788)"/><path d="M77.769 36.9335 77.194 38.2735 76.2358 38.2735C75.9483 36.6463 77.194 34.1577 77.769 36.9335Z" fill-rule="evenodd" transform="matrix(1.00059 0 0 1 672.146 494.788)"/><path d="M98.4669 40.3792 97.6044 40.2835 97.317 38.3693C97.8919 37.6992 97.8919 37.6992 98.4669 37.8906 98.7544 38.6563 98.7544 39.5178 98.4669 40.3792Z" fill-rule="evenodd" transform="matrix(1.00059 0 0 1 672.146 494.788)"/><path d="M142.511 85.7453C141.649 84.884 146.823 82.6825 146.344 81.9168 146.057 81.2467 141.362 83.831 140.787 83.1611 140.212 82.4911 144.907 80.2896 144.811 79.8111 144.524 79.2368 142.703 80.3853 138.87 81.4381 137.529 81.8211 134.462 82.9697 132.833 83.2568 130.725 83.6396 128.521 83.6396 126.317 83.544 126.413 83.6396 115.106 81.6297 111.848 80.481 109.932 79.8111 103.416 76.3653 97.7621 73.9724L97.7621 91.2011C103.128 92.4454 116.064 95.2212 127.851 93.3068 137.529 91.6797 146.728 85.3625 147.015 84.5968 147.686 82.9697 143.278 86.6068 142.511 85.7453Z" fill="#A0640A" fill-rule="evenodd" transform="matrix(1.00059 0 0 1 672.146 494.788)"/><path d="M84.4426 66.5066C84.4426 66.5066 73.2313 60.9552 69.3026 71.0052 65.3739 81.0553 82.9094 88.8083 82.9094 88.8083 86.7424 90.7226 101.787 95.5083 101.787 95.5083 101.787 95.5083 106.769 75.7911 106.769 75.4082 105.62 74.8338 84.2509 66.3152 84.4426 66.5066Z" fill="#BE0A3C" fill-rule="evenodd" transform="matrix(1.00059 0 0 1 672.146 494.788)"/><path d="M134.462 86.1282C132.163 86.0325 131.588 83.6396 131.588 83.6396 131.588 83.6396 137.625 77.9924 138.391 78.5667 139.062 79.141 137.816 80.6724 136.858 82.3954 139.254 84.1183 136.858 86.3196 134.462 86.1282Z" fill="#824600" fill-rule="evenodd" transform="matrix(1.00059 0 0 1 672.146 494.788)"/><path d="M12.8403 106.489C9.7739 105.628 14.086 93.6632 14.7568 92.6104 15.3317 93.8546 14.1818 105.819 12.8403 106.489Z" fill="#824600" fill-rule="evenodd" transform="matrix(1.00059 0 0 1 672.146 494.788)"/><path d="M27.0221 63.3215C21.9435 66.1929 17.6315 70.3086 14.4693 75.1901 8.4324 84.3788-0.0957824 105.819 0.574968 106.776 1.24572 107.733 2.77892 101.703 4.59947 102.373 6.42015 103.043 2.77892 108.882 3.73715 109.648 4.69539 110.413 7.47417 103.139 8.24084 103.713 9.00737 104.288 6.13267 109.36 6.70764 109.743 7.2826 110.126 15.9067 94.7161 21.0811 88.7817 23.3809 86.006 27.8846 80.8373 30.855 78.7316 34.688 76.1473 40.3416 74.4244 45.3243 75.2859L48.6782 58.0571C43.6954 57.5786 31.1425 60.8329 27.0221 63.3215Z" fill="#A0640A" fill-rule="evenodd" transform="matrix(1.00059 0 0 1 672.146 494.788)"/><path d="M55.5774 56.7171C45.2286 55.8558 41.4914 57.2914 41.4914 57.2914L42.6413 76.7216C42.6413 76.7216 51.457 77.1044 59.2188 80.4545 59.2188 80.4545 71.6757 86.3889 79.0541 78.1573 86.4325 69.9258 82.2163 65.2357 82.2163 65.2357 81.9288 65.1401 65.9264 57.5786 55.5774 56.7171Z" fill="#F01446" fill-rule="evenodd" transform="matrix(1.00059 0 0 1 672.146 494.788)"/><path d="M95.3441 88.9193C95.6316 77.2421 88.4448 62.8848 75.2212 64.0334 70.8133 64.4163 65.4473 65.6606 61.806 68.3406 61.4227 68.6277 54.3318 76.4764 53.2777 78.7735 47.9116 89.6851 38.2335 116.772 38.2335 116.772L89.7863 121.271C89.6905 121.271 95.1524 95.1408 95.3441 88.9193Z" fill="#F01446" fill-rule="evenodd" transform="matrix(1.00059 0 0 1 672.146 494.788)"/></g></svg>