<svg width="193" height="189" xmlns="http://www.w3.org/2000/svg" xmlns:xlink="http://www.w3.org/1999/xlink" xml:space="preserve" overflow="hidden"><defs><clipPath id="clip0"><rect x="986" y="494" width="193" height="189"/></clipPath></defs><g clip-path="url(#clip0)" transform="translate(-986 -494)"><path d="M286.841 285.785 303.599 285.785C301.572 290.233 296.572 300.344 296.572 300.344 296.572 300.344 287.382 300.748 284.003 299.535 284.274 297.917 285.895 289.829 286.841 285.785Z" fill="#A0640A" fill-rule="evenodd" transform="matrix(1 0 0 1.00011 762.407 348.195)"/><path d="M276.976 329.192 284.544 331.079C283.868 332.427 283.463 333.91 283.463 333.91 283.328 334.449 268.867 332.562 268.192 332.562 268.192 332.562 268.327 331.214 268.327 331.079 269.678 330.945 276.976 329.192 276.976 329.192Z" fill-rule="evenodd" transform="matrix(1 0 0 1.00011 762.407 348.195)"/><path d="M295.355 307.084C292.788 313.824 286.977 326.091 284.544 331.079L276.976 329.192 282.787 298.995 299.139 298.995C297.518 302.635 295.761 306.14 295.355 307.084Z" fill="#F01446" fill-rule="evenodd" transform="matrix(1 0 0 1.00011 762.407 348.195)"/><path d="M296.572 305.601 281.301 303.444 281.976 300.748 298.058 302.366Z" fill="#F5CFCF" fill-rule="evenodd" transform="matrix(1 0 0 1.00011 762.407 348.195)"/><path d="M294.95 310.858 279.679 308.567 280.355 305.871 296.437 307.488Z" fill="#F5CFCF" fill-rule="evenodd" transform="matrix(1 0 0 1.00011 762.407 348.195)"/><path d="M353.602 299.535C350.223 300.748 341.034 300.344 341.034 300.344 341.034 300.344 336.033 290.233 334.006 285.785L350.764 285.785C351.845 289.829 353.332 297.917 353.602 299.535Z" fill="#A0640A" fill-rule="evenodd" transform="matrix(1 0 0 1.00011 762.407 348.195)"/><path d="M369.414 332.562C368.738 332.562 354.278 334.719 354.278 334.045 354.278 334.045 353.872 332.562 353.196 331.214L360.629 328.248C360.629 328.248 368.062 330.945 369.414 331.079 369.549 331.214 369.549 332.562 369.414 332.562Z" fill-rule="evenodd" transform="matrix(1 0 0 1.00011 762.407 348.195)"/><path d="M360.764 328.248 353.332 331.214C350.899 326.226 345.088 313.824 342.52 307.219 342.115 306.14 340.493 302.77 338.736 298.995L355.088 298.995Z" fill="#F01446" fill-rule="evenodd" transform="matrix(1 0 0 1.00011 762.407 348.195)"/><path d="M339.952 302.5 356.034 300.883 356.71 303.579 341.439 305.736Z" fill="#F5CFCF" fill-rule="evenodd" transform="matrix(1 0 0 1.00011 762.407 348.195)"/><path d="M341.574 307.623 357.656 306.005 358.332 308.702 343.061 310.993Z" fill="#F5CFCF" fill-rule="evenodd" transform="matrix(1 0 0 1.00011 762.407 348.195)"/><path d="M331.303 183.871C332.79 180.231 343.601 178.075 341.439 185.489 339.277 192.903 331.438 190.746 331.438 190.746 331.438 190.746 330.763 185.624 331.303 183.871Z" fill="#A0640A" fill-rule="evenodd" transform="matrix(1 0 0 1.00011 762.407 348.195)"/><path d="M338.466 178.748C338.736 186.702 335.222 193.847 331.844 197.486 326.033 203.553 314.546 202.34 311.573 201.396 306.032 199.643 300.761 191.69 297.653 184.41 296.572 181.579 295.761 178.614 295.085 175.648L321.573 161.224C321.573 161.224 333.601 163.785 334.276 164.729 335.087 165.807 338.331 173.087 338.466 178.748Z" fill="#A0640A" fill-rule="evenodd" transform="matrix(1 0 0 1.00011 762.407 348.195)"/><path d="M292.788 158.797 293.599 158.258C292.382 155.023 289.544 149.765 294.95 148.822 298.193 148.147 302.923 151.787 304.005 154.753 304.545 155.023 304.545 155.023 305.086 154.618 304.545 152.192 303.599 149.091 305.626 147.204 311.708 143.699 314.681 152.326 318.194 155.831L319.005 155.697C319.681 153.001 317.789 149.226 321.843 149.091 324.546 149.091 325.763 151.383 327.114 153.135 330.357 157.314 334.952 164.998 334.952 164.998 334.952 164.998 334.952 169.717 327.925 170.93 324.411 171.604 318.33 167.964 309.005 171.604 299.545 175.244 299.815 187.915 299.815 187.915 299.815 187.915 289.679 169.042 288.463 166.346 287.517 164.324 284.949 158.258 287.112 156.64 288.598 155.158 291.436 157.854 292.788 158.797Z" fill-rule="evenodd" transform="matrix(1 0 0 1.00011 762.407 348.195)"/><path d="M301.031 190.072C301.031 190.072 293.193 192.229 291.031 184.815 288.869 177.4 299.68 179.557 301.167 183.197 301.842 184.95 301.031 190.072 301.031 190.072Z" fill="#A0640A" fill-rule="evenodd" transform="matrix(1 0 0 1.00011 762.407 348.195)"/><path d="M313.6 190.611C317.654 189.937 321.573 190.207 325.627 190.746 325.627 197.486 311.708 197.352 313.6 190.611Z" fill-rule="evenodd" transform="matrix(1 0 0 1.00011 762.407 348.195)"/><path d="M318.33 184.815C315.492 181.04 323.87 176.457 325.627 182.253 326.979 186.702 321.032 185.219 318.33 184.815Z" fill="#824600" fill-rule="evenodd" transform="matrix(1 0 0 1.00011 762.407 348.195)"/><path d="M310.356 181.714 309.951 183.197 309.005 183.197C308.464 181.445 309.41 179.018 310.356 181.714Z" fill-rule="evenodd" transform="matrix(1 0 0 1.00011 762.407 348.195)"/><path d="M331.303 182.658 330.492 182.658 329.952 180.771C330.357 180.097 330.357 180.097 331.033 180.231 331.438 180.905 331.574 181.849 331.303 182.658Z" fill-rule="evenodd" transform="matrix(1 0 0 1.00011 762.407 348.195)"/><path d="M280.219 291.581C282.247 285.38 286.031 274.73 288.058 268.529 289.004 265.698 289.95 262.867 290.896 259.902 291.301 258.823 293.599 252.757 293.599 252.757 293.599 252.757 298.058 238.602 318.735 238.468 339.412 238.333 346.439 255.992 347.791 260.98 350.088 269.877 353.737 283.628 355.359 291.177L332.249 292.12 324.681 270.282 324.681 270.417 311.978 270.551 305.221 291.716Z" fill-rule="evenodd" transform="matrix(1 0 0 1.00011 762.407 348.195)"/><path d="M231.298 214.877C231.163 213.933 225.216 214.068 225.081 213.394 224.946 212.72 290.49 210.967 292.923 210.158 292.923 210.158 302.653 209.619 302.923 217.842 303.194 226.065 292.112 225.257 292.112 225.257 280.084 226.065 225.352 221.482 224.811 220.404 224.27 219.325 230.487 220.808 230.757 218.786 231.028 216.899 223.865 217.438 223.595 216.225 223.459 215.146 231.568 215.82 231.298 214.877Z" fill="#A0640A" fill-rule="evenodd" transform="matrix(1 0 0 1.00011 762.407 348.195)"/><path d="M244.136 212.45C244.677 213.933 244.407 218.381 240.217 217.977 236.028 217.573 238.19 213.933 237.514 212.72 236.839 211.372 232.244 210.023 232.514 208.945 233.73 208.001 243.596 210.967 244.136 212.45Z" fill="#824600" fill-rule="evenodd" transform="matrix(1 0 0 1.00011 762.407 348.195)"/><path d="M282.652 208.81 306.437 208.81C311.167 208.675 315.221 210.158 315.221 218.381 315.221 226.605 306.707 227.683 303.059 227.683 299.41 227.683 283.328 227.683 283.057 227.683 282.382 227.009 282.517 210.428 282.652 208.81Z" fill="#F01446" fill-rule="evenodd" transform="matrix(1 0 0 1.00011 762.407 348.195)"/><path d="M416.578 216.09C416.308 217.303 409.145 216.764 409.416 218.651 409.686 220.673 415.767 219.19 415.362 220.269 414.957 221.347 359.818 226.874 347.791 226.065 347.791 226.065 336.033 226.605 336.033 217.573 336.033 208.541 347.385 210.158 347.385 210.158 349.818 210.967 415.362 212.72 415.227 213.394 415.092 214.068 409.145 213.933 409.01 214.877 408.875 215.82 416.984 215.011 416.578 216.09Z" fill="#A0640A" fill-rule="evenodd" transform="matrix(1 0 0 1.00011 762.407 348.195)"/><path d="M407.794 208.945C408.064 210.023 403.469 211.372 402.794 212.72 402.118 213.933 404.28 217.573 400.091 217.977 395.902 218.381 395.631 213.933 396.172 212.45 396.577 210.967 406.713 208.001 407.794 208.945Z" fill="#824600" fill-rule="evenodd" transform="matrix(1 0 0 1.00011 762.407 348.195)"/><path d="M356.17 227.683C355.899 227.683 338.871 227.548 335.087 227.548 331.303 227.548 323.87 226.605 323.87 218.381 323.87 210.158 327.925 208.675 332.655 208.81L356.44 208.81C356.575 210.428 356.71 227.009 356.17 227.683Z" fill="#F01446" fill-rule="evenodd" transform="matrix(1 0 0 1.00011 762.407 348.195)"/><path d="M333.736 208.81C337.655 222.83 351.034 263.002 351.034 263.002L285.22 266.372C285.22 266.372 302.383 222.021 306.437 208.81Z" fill="#F01446" fill-rule="evenodd" transform="matrix(1 0 0 1.00011 762.407 348.195)"/></g></svg>